<mxfile host="app.diagrams.net" modified="2024-05-28T04:13:41.481Z" agent="Mozilla/5.0 (Windows NT 10.0; Win64; x64) AppleWebKit/537.36 (KHTML, like Gecko) Chrome/124.0.0.0 Safari/537.36" etag="9TsYgeecIPxdpcdkvYKk" version="24.4.4" type="github">
  <diagram id="C5RBs43oDa-KdzZeNtuy" name="Page-1">
    <mxGraphModel dx="1687" dy="878" grid="1" gridSize="10" guides="1" tooltips="1" connect="1" arrows="1" fold="1" page="1" pageScale="1" pageWidth="827" pageHeight="1169" math="0" shadow="0">
      <root>
        <mxCell id="WIyWlLk6GJQsqaUBKTNV-0" />
        <mxCell id="WIyWlLk6GJQsqaUBKTNV-1" parent="WIyWlLk6GJQsqaUBKTNV-0" />
        <mxCell id="QpX_nXxIr_vmFLKxzl1e-6" style="edgeStyle=orthogonalEdgeStyle;rounded=0;orthogonalLoop=1;jettySize=auto;html=1;exitX=0.5;exitY=1;exitDx=0;exitDy=0;" edge="1" parent="WIyWlLk6GJQsqaUBKTNV-1" source="QpX_nXxIr_vmFLKxzl1e-0" target="QpX_nXxIr_vmFLKxzl1e-1">
          <mxGeometry relative="1" as="geometry" />
        </mxCell>
        <mxCell id="QpX_nXxIr_vmFLKxzl1e-0" value="url:&amp;nbsp;https://rt.molit.go.kr/pt/xls/xls.do?mobileAt=&lt;br&gt;url open 각 용도, 매매/전월세 구분클릭" style="rounded=1;whiteSpace=wrap;html=1;" vertex="1" parent="WIyWlLk6GJQsqaUBKTNV-1">
          <mxGeometry x="40" y="50" width="230" height="60" as="geometry" />
        </mxCell>
        <mxCell id="QpX_nXxIr_vmFLKxzl1e-7" style="edgeStyle=orthogonalEdgeStyle;rounded=0;orthogonalLoop=1;jettySize=auto;html=1;exitX=0.5;exitY=1;exitDx=0;exitDy=0;" edge="1" parent="WIyWlLk6GJQsqaUBKTNV-1" source="QpX_nXxIr_vmFLKxzl1e-1" target="QpX_nXxIr_vmFLKxzl1e-2">
          <mxGeometry relative="1" as="geometry" />
        </mxCell>
        <mxCell id="QpX_nXxIr_vmFLKxzl1e-1" value="1,7 월이면 12 나머지는 3 반복 횟수 변수 저장" style="rounded=1;whiteSpace=wrap;html=1;" vertex="1" parent="WIyWlLk6GJQsqaUBKTNV-1">
          <mxGeometry x="40" y="140" width="230" height="60" as="geometry" />
        </mxCell>
        <mxCell id="QpX_nXxIr_vmFLKxzl1e-8" style="edgeStyle=orthogonalEdgeStyle;rounded=0;orthogonalLoop=1;jettySize=auto;html=1;exitX=0.5;exitY=1;exitDx=0;exitDy=0;" edge="1" parent="WIyWlLk6GJQsqaUBKTNV-1" source="QpX_nXxIr_vmFLKxzl1e-2" target="QpX_nXxIr_vmFLKxzl1e-3">
          <mxGeometry relative="1" as="geometry" />
        </mxCell>
        <mxCell id="QpX_nXxIr_vmFLKxzl1e-2" value="반복 횟수 만큼 년 월 바꾸면서 다운로드" style="rounded=1;whiteSpace=wrap;html=1;" vertex="1" parent="WIyWlLk6GJQsqaUBKTNV-1">
          <mxGeometry x="40" y="230" width="230" height="60" as="geometry" />
        </mxCell>
        <mxCell id="QpX_nXxIr_vmFLKxzl1e-11" style="edgeStyle=orthogonalEdgeStyle;rounded=0;orthogonalLoop=1;jettySize=auto;html=1;exitX=0;exitY=0.5;exitDx=0;exitDy=0;" edge="1" parent="WIyWlLk6GJQsqaUBKTNV-1" source="QpX_nXxIr_vmFLKxzl1e-3">
          <mxGeometry relative="1" as="geometry">
            <mxPoint x="150" y="300" as="targetPoint" />
          </mxGeometry>
        </mxCell>
        <mxCell id="QpX_nXxIr_vmFLKxzl1e-3" value="파일 전체 순환 각 파일 해당 년월 데이터 delete 후 insert&amp;nbsp;" style="rounded=1;whiteSpace=wrap;html=1;" vertex="1" parent="WIyWlLk6GJQsqaUBKTNV-1">
          <mxGeometry x="40" y="320" width="230" height="60" as="geometry" />
        </mxCell>
        <mxCell id="QpX_nXxIr_vmFLKxzl1e-9" value="" style="endArrow=classic;html=1;rounded=0;exitX=0;exitY=0.5;exitDx=0;exitDy=0;" edge="1" parent="WIyWlLk6GJQsqaUBKTNV-1" source="QpX_nXxIr_vmFLKxzl1e-2">
          <mxGeometry width="50" height="50" relative="1" as="geometry">
            <mxPoint x="150" y="300" as="sourcePoint" />
            <mxPoint x="155" y="210" as="targetPoint" />
            <Array as="points">
              <mxPoint x="20" y="260" />
              <mxPoint x="20" y="210" />
              <mxPoint x="80" y="210" />
            </Array>
          </mxGeometry>
        </mxCell>
        <mxCell id="QpX_nXxIr_vmFLKxzl1e-12" value="토지 지번 매칭 step1" style="text;html=1;align=center;verticalAlign=middle;resizable=0;points=[];autosize=1;strokeColor=none;fillColor=none;" vertex="1" parent="WIyWlLk6GJQsqaUBKTNV-1">
          <mxGeometry x="130" y="429" width="130" height="30" as="geometry" />
        </mxCell>
        <mxCell id="QpX_nXxIr_vmFLKxzl1e-13" value="직전 3개월(1,7월 12개월) 거래 내역 파일 read" style="rounded=1;whiteSpace=wrap;html=1;" vertex="1" parent="WIyWlLk6GJQsqaUBKTNV-1">
          <mxGeometry x="600" y="20" width="170" height="60" as="geometry" />
        </mxCell>
        <mxCell id="QpX_nXxIr_vmFLKxzl1e-14" value="직전 1년 기존 데이터 지번 못 찾은 row 가져오기" style="rounded=1;whiteSpace=wrap;html=1;" vertex="1" parent="WIyWlLk6GJQsqaUBKTNV-1">
          <mxGeometry x="600" y="120" width="170" height="60" as="geometry" />
        </mxCell>
        <mxCell id="QpX_nXxIr_vmFLKxzl1e-27" style="edgeStyle=orthogonalEdgeStyle;rounded=0;orthogonalLoop=1;jettySize=auto;html=1;exitX=0.5;exitY=1;exitDx=0;exitDy=0;entryX=0.5;entryY=0;entryDx=0;entryDy=0;" edge="1" parent="WIyWlLk6GJQsqaUBKTNV-1" source="QpX_nXxIr_vmFLKxzl1e-15" target="QpX_nXxIr_vmFLKxzl1e-16">
          <mxGeometry relative="1" as="geometry" />
        </mxCell>
        <mxCell id="QpX_nXxIr_vmFLKxzl1e-15" value="지분 스킵, 시군구 표현 통일(Ex. 성남 수정구/성남시수정구, 세통특별시 공백 2번)" style="rounded=1;whiteSpace=wrap;html=1;" vertex="1" parent="WIyWlLk6GJQsqaUBKTNV-1">
          <mxGeometry x="130" y="459" width="170" height="60" as="geometry" />
        </mxCell>
        <mxCell id="QpX_nXxIr_vmFLKxzl1e-28" style="edgeStyle=orthogonalEdgeStyle;rounded=0;orthogonalLoop=1;jettySize=auto;html=1;exitX=0.5;exitY=1;exitDx=0;exitDy=0;" edge="1" parent="WIyWlLk6GJQsqaUBKTNV-1" source="QpX_nXxIr_vmFLKxzl1e-16" target="QpX_nXxIr_vmFLKxzl1e-19">
          <mxGeometry relative="1" as="geometry" />
        </mxCell>
        <mxCell id="QpX_nXxIr_vmFLKxzl1e-16" value="파일 단위 반복&lt;br&gt;nan 데이터 처리 / 기준 연도 변수 저장" style="rounded=1;whiteSpace=wrap;html=1;" vertex="1" parent="WIyWlLk6GJQsqaUBKTNV-1">
          <mxGeometry x="130" y="549" width="170" height="60" as="geometry" />
        </mxCell>
        <mxCell id="QpX_nXxIr_vmFLKxzl1e-30" style="edgeStyle=orthogonalEdgeStyle;rounded=0;orthogonalLoop=1;jettySize=auto;html=1;exitX=0.5;exitY=1;exitDx=0;exitDy=0;" edge="1" parent="WIyWlLk6GJQsqaUBKTNV-1" source="QpX_nXxIr_vmFLKxzl1e-18" target="QpX_nXxIr_vmFLKxzl1e-20">
          <mxGeometry relative="1" as="geometry" />
        </mxCell>
        <mxCell id="QpX_nXxIr_vmFLKxzl1e-18" value="토지임야, 토지특성 join 지역, 기준연도로 데이터 select" style="rounded=1;whiteSpace=wrap;html=1;" vertex="1" parent="WIyWlLk6GJQsqaUBKTNV-1">
          <mxGeometry x="130" y="729" width="170" height="60" as="geometry" />
        </mxCell>
        <mxCell id="QpX_nXxIr_vmFLKxzl1e-29" style="edgeStyle=orthogonalEdgeStyle;rounded=0;orthogonalLoop=1;jettySize=auto;html=1;exitX=0.5;exitY=1;exitDx=0;exitDy=0;" edge="1" parent="WIyWlLk6GJQsqaUBKTNV-1" source="QpX_nXxIr_vmFLKxzl1e-19" target="QpX_nXxIr_vmFLKxzl1e-18">
          <mxGeometry relative="1" as="geometry" />
        </mxCell>
        <mxCell id="QpX_nXxIr_vmFLKxzl1e-19" value="시구군 단위 반복" style="rounded=1;whiteSpace=wrap;html=1;" vertex="1" parent="WIyWlLk6GJQsqaUBKTNV-1">
          <mxGeometry x="130" y="639" width="170" height="60" as="geometry" />
        </mxCell>
        <mxCell id="QpX_nXxIr_vmFLKxzl1e-31" style="edgeStyle=orthogonalEdgeStyle;rounded=0;orthogonalLoop=1;jettySize=auto;html=1;exitX=0.5;exitY=1;exitDx=0;exitDy=0;entryX=0.5;entryY=0;entryDx=0;entryDy=0;" edge="1" parent="WIyWlLk6GJQsqaUBKTNV-1" source="QpX_nXxIr_vmFLKxzl1e-20" target="QpX_nXxIr_vmFLKxzl1e-21">
          <mxGeometry relative="1" as="geometry" />
        </mxCell>
        <mxCell id="QpX_nXxIr_vmFLKxzl1e-20" value="파일 row 순회&lt;br&gt;지분 스킵, 시군구 표현 통일,&lt;br&gt;실거래가 번지 표현 변경&amp;nbsp;" style="rounded=1;whiteSpace=wrap;html=1;" vertex="1" parent="WIyWlLk6GJQsqaUBKTNV-1">
          <mxGeometry x="130" y="819" width="170" height="60" as="geometry" />
        </mxCell>
        <mxCell id="QpX_nXxIr_vmFLKxzl1e-32" style="edgeStyle=orthogonalEdgeStyle;rounded=0;orthogonalLoop=1;jettySize=auto;html=1;exitX=0.5;exitY=1;exitDx=0;exitDy=0;entryX=0.5;entryY=0;entryDx=0;entryDy=0;" edge="1" parent="WIyWlLk6GJQsqaUBKTNV-1" source="QpX_nXxIr_vmFLKxzl1e-21" target="QpX_nXxIr_vmFLKxzl1e-25">
          <mxGeometry relative="1" as="geometry" />
        </mxCell>
        <mxCell id="QpX_nXxIr_vmFLKxzl1e-21" value="가져온 데이터 법정동명 맞는 데이터만 복사" style="rounded=1;whiteSpace=wrap;html=1;" vertex="1" parent="WIyWlLk6GJQsqaUBKTNV-1">
          <mxGeometry x="130" y="909" width="170" height="60" as="geometry" />
        </mxCell>
        <mxCell id="QpX_nXxIr_vmFLKxzl1e-26" style="edgeStyle=orthogonalEdgeStyle;rounded=0;orthogonalLoop=1;jettySize=auto;html=1;exitX=0;exitY=0.5;exitDx=0;exitDy=0;entryX=0.5;entryY=0;entryDx=0;entryDy=0;" edge="1" parent="WIyWlLk6GJQsqaUBKTNV-1" source="QpX_nXxIr_vmFLKxzl1e-25" target="QpX_nXxIr_vmFLKxzl1e-20">
          <mxGeometry relative="1" as="geometry">
            <mxPoint x="90" y="749" as="targetPoint" />
            <Array as="points">
              <mxPoint x="90" y="1039" />
              <mxPoint x="90" y="799" />
              <mxPoint x="215" y="799" />
            </Array>
          </mxGeometry>
        </mxCell>
        <mxCell id="QpX_nXxIr_vmFLKxzl1e-33" style="edgeStyle=orthogonalEdgeStyle;rounded=0;orthogonalLoop=1;jettySize=auto;html=1;exitX=0.5;exitY=1;exitDx=0;exitDy=0;entryX=0.5;entryY=0;entryDx=0;entryDy=0;" edge="1" parent="WIyWlLk6GJQsqaUBKTNV-1" source="QpX_nXxIr_vmFLKxzl1e-25" target="QpX_nXxIr_vmFLKxzl1e-35">
          <mxGeometry relative="1" as="geometry">
            <mxPoint x="485" y="459" as="targetPoint" />
            <Array as="points">
              <mxPoint x="215" y="1099" />
              <mxPoint x="330" y="1099" />
              <mxPoint x="330" y="439" />
              <mxPoint x="475" y="439" />
            </Array>
          </mxGeometry>
        </mxCell>
        <mxCell id="QpX_nXxIr_vmFLKxzl1e-25" value="가져온 데이터와 비교 거래년도 == 기준년도 / 지목 / 용도 / 면적 / 도로구분 일치 데이터가 1개&lt;div&gt;&lt;br&gt;&lt;/div&gt;" style="rhombus;whiteSpace=wrap;html=1;" vertex="1" parent="WIyWlLk6GJQsqaUBKTNV-1">
          <mxGeometry x="110" y="999" width="210" height="80" as="geometry" />
        </mxCell>
        <mxCell id="QpX_nXxIr_vmFLKxzl1e-38" style="edgeStyle=orthogonalEdgeStyle;rounded=0;orthogonalLoop=1;jettySize=auto;html=1;exitX=0;exitY=0.5;exitDx=0;exitDy=0;entryX=0.5;entryY=0;entryDx=0;entryDy=0;" edge="1" parent="WIyWlLk6GJQsqaUBKTNV-1" source="QpX_nXxIr_vmFLKxzl1e-35" target="QpX_nXxIr_vmFLKxzl1e-20">
          <mxGeometry relative="1" as="geometry">
            <Array as="points">
              <mxPoint x="350" y="504" />
              <mxPoint x="350" y="1129" />
              <mxPoint x="90" y="1129" />
              <mxPoint x="90" y="819" />
            </Array>
          </mxGeometry>
        </mxCell>
        <mxCell id="QpX_nXxIr_vmFLKxzl1e-42" style="edgeStyle=orthogonalEdgeStyle;rounded=0;orthogonalLoop=1;jettySize=auto;html=1;exitX=0.5;exitY=1;exitDx=0;exitDy=0;entryX=0.5;entryY=0;entryDx=0;entryDy=0;" edge="1" parent="WIyWlLk6GJQsqaUBKTNV-1" source="QpX_nXxIr_vmFLKxzl1e-35" target="QpX_nXxIr_vmFLKxzl1e-39">
          <mxGeometry relative="1" as="geometry" />
        </mxCell>
        <mxCell id="QpX_nXxIr_vmFLKxzl1e-35" value="가져온 데이터와 비교 거래년도 == 기준년도 -1 / 지목 / 용도 / 면적 / 도로구분 일치 데이터가 1개&lt;div&gt;&lt;br&gt;&lt;/div&gt;" style="rhombus;whiteSpace=wrap;html=1;" vertex="1" parent="WIyWlLk6GJQsqaUBKTNV-1">
          <mxGeometry x="370" y="459" width="210" height="90" as="geometry" />
        </mxCell>
        <mxCell id="QpX_nXxIr_vmFLKxzl1e-36" value="Depth1" style="text;html=1;align=center;verticalAlign=middle;resizable=0;points=[];autosize=1;strokeColor=none;fillColor=none;" vertex="1" parent="WIyWlLk6GJQsqaUBKTNV-1">
          <mxGeometry x="110" y="979" width="60" height="30" as="geometry" />
        </mxCell>
        <mxCell id="QpX_nXxIr_vmFLKxzl1e-37" value="Depth2" style="text;html=1;align=center;verticalAlign=middle;resizable=0;points=[];autosize=1;strokeColor=none;fillColor=none;" vertex="1" parent="WIyWlLk6GJQsqaUBKTNV-1">
          <mxGeometry x="370" y="439" width="60" height="30" as="geometry" />
        </mxCell>
        <mxCell id="QpX_nXxIr_vmFLKxzl1e-43" style="edgeStyle=orthogonalEdgeStyle;rounded=0;orthogonalLoop=1;jettySize=auto;html=1;exitX=0.5;exitY=1;exitDx=0;exitDy=0;entryX=0.5;entryY=0;entryDx=0;entryDy=0;" edge="1" parent="WIyWlLk6GJQsqaUBKTNV-1" source="QpX_nXxIr_vmFLKxzl1e-39" target="QpX_nXxIr_vmFLKxzl1e-41">
          <mxGeometry relative="1" as="geometry" />
        </mxCell>
        <mxCell id="QpX_nXxIr_vmFLKxzl1e-44" style="edgeStyle=orthogonalEdgeStyle;rounded=0;orthogonalLoop=1;jettySize=auto;html=1;exitX=0;exitY=0.5;exitDx=0;exitDy=0;entryX=0.5;entryY=0;entryDx=0;entryDy=0;" edge="1" parent="WIyWlLk6GJQsqaUBKTNV-1" source="QpX_nXxIr_vmFLKxzl1e-39" target="QpX_nXxIr_vmFLKxzl1e-20">
          <mxGeometry relative="1" as="geometry">
            <Array as="points">
              <mxPoint x="360" y="614" />
              <mxPoint x="360" y="1149" />
              <mxPoint x="90" y="1149" />
              <mxPoint x="90" y="819" />
            </Array>
          </mxGeometry>
        </mxCell>
        <mxCell id="QpX_nXxIr_vmFLKxzl1e-39" value="가져온 데이터와 비교 거래년도 == 기준년도 / 지목 / 용도 / 면적 일치 데이터가 1개&lt;div&gt;&lt;br&gt;&lt;/div&gt;" style="rhombus;whiteSpace=wrap;html=1;" vertex="1" parent="WIyWlLk6GJQsqaUBKTNV-1">
          <mxGeometry x="370" y="569" width="210" height="90" as="geometry" />
        </mxCell>
        <mxCell id="QpX_nXxIr_vmFLKxzl1e-40" value="가져온 데이터와 비교 거래년도 == 기준년도 -1 / 지목 / 용도 / 면적 / 도로구분 일치 데이터가 1개&lt;div&gt;&lt;br&gt;&lt;/div&gt;" style="rhombus;whiteSpace=wrap;html=1;" vertex="1" parent="WIyWlLk6GJQsqaUBKTNV-1">
          <mxGeometry x="570" y="230" width="210" height="80" as="geometry" />
        </mxCell>
        <mxCell id="QpX_nXxIr_vmFLKxzl1e-45" style="edgeStyle=orthogonalEdgeStyle;rounded=0;orthogonalLoop=1;jettySize=auto;html=1;entryX=0.5;entryY=0;entryDx=0;entryDy=0;exitX=0;exitY=0.5;exitDx=0;exitDy=0;" edge="1" parent="WIyWlLk6GJQsqaUBKTNV-1" source="QpX_nXxIr_vmFLKxzl1e-41" target="QpX_nXxIr_vmFLKxzl1e-20">
          <mxGeometry relative="1" as="geometry">
            <mxPoint x="475" y="769" as="sourcePoint" />
            <Array as="points">
              <mxPoint x="370" y="1169" />
              <mxPoint x="90" y="1169" />
              <mxPoint x="90" y="819" />
            </Array>
          </mxGeometry>
        </mxCell>
        <mxCell id="QpX_nXxIr_vmFLKxzl1e-50" style="edgeStyle=orthogonalEdgeStyle;rounded=0;orthogonalLoop=1;jettySize=auto;html=1;exitX=0.5;exitY=1;exitDx=0;exitDy=0;entryX=0.5;entryY=0;entryDx=0;entryDy=0;" edge="1" parent="WIyWlLk6GJQsqaUBKTNV-1" source="QpX_nXxIr_vmFLKxzl1e-41" target="QpX_nXxIr_vmFLKxzl1e-48">
          <mxGeometry relative="1" as="geometry" />
        </mxCell>
        <mxCell id="QpX_nXxIr_vmFLKxzl1e-41" value="가져온 데이터와 비교 거래년도 == 기준년도 -1 / 지목 / 용도 / 면적 일치 데이터가 1개&lt;div&gt;&lt;br&gt;&lt;/div&gt;" style="rhombus;whiteSpace=wrap;html=1;" vertex="1" parent="WIyWlLk6GJQsqaUBKTNV-1">
          <mxGeometry x="370" y="679" width="210" height="90" as="geometry" />
        </mxCell>
        <mxCell id="QpX_nXxIr_vmFLKxzl1e-46" value="Depth3" style="text;html=1;align=center;verticalAlign=middle;resizable=0;points=[];autosize=1;strokeColor=none;fillColor=none;" vertex="1" parent="WIyWlLk6GJQsqaUBKTNV-1">
          <mxGeometry x="370" y="549" width="60" height="30" as="geometry" />
        </mxCell>
        <mxCell id="QpX_nXxIr_vmFLKxzl1e-47" value="Depth4" style="text;html=1;align=center;verticalAlign=middle;resizable=0;points=[];autosize=1;strokeColor=none;fillColor=none;" vertex="1" parent="WIyWlLk6GJQsqaUBKTNV-1">
          <mxGeometry x="370" y="659" width="60" height="30" as="geometry" />
        </mxCell>
        <mxCell id="QpX_nXxIr_vmFLKxzl1e-51" style="edgeStyle=orthogonalEdgeStyle;rounded=0;orthogonalLoop=1;jettySize=auto;html=1;exitX=0.5;exitY=1;exitDx=0;exitDy=0;" edge="1" parent="WIyWlLk6GJQsqaUBKTNV-1" source="QpX_nXxIr_vmFLKxzl1e-48">
          <mxGeometry relative="1" as="geometry">
            <mxPoint x="475" y="929" as="targetPoint" />
          </mxGeometry>
        </mxCell>
        <mxCell id="QpX_nXxIr_vmFLKxzl1e-48" value="뎁스별 매칭 된 번지들 저장(매칭 없음 or 다중 매칭)&lt;div&gt;dbInsert 리스트에 저장&lt;/div&gt;" style="rounded=1;whiteSpace=wrap;html=1;" vertex="1" parent="WIyWlLk6GJQsqaUBKTNV-1">
          <mxGeometry x="390" y="819" width="170" height="60" as="geometry" />
        </mxCell>
        <mxCell id="QpX_nXxIr_vmFLKxzl1e-52" value="파일 순회 종료시 db insert&amp;nbsp;" style="rounded=1;whiteSpace=wrap;html=1;" vertex="1" parent="WIyWlLk6GJQsqaUBKTNV-1">
          <mxGeometry x="390" y="929" width="170" height="60" as="geometry" />
        </mxCell>
        <mxCell id="QpX_nXxIr_vmFLKxzl1e-53" value="토지 지번 매칭 step2" style="text;html=1;align=center;verticalAlign=middle;resizable=0;points=[];autosize=1;strokeColor=none;fillColor=none;" vertex="1" parent="WIyWlLk6GJQsqaUBKTNV-1">
          <mxGeometry x="90" y="1210" width="130" height="30" as="geometry" />
        </mxCell>
        <mxCell id="QpX_nXxIr_vmFLKxzl1e-54" style="edgeStyle=orthogonalEdgeStyle;rounded=0;orthogonalLoop=1;jettySize=auto;html=1;exitX=0.5;exitY=1;exitDx=0;exitDy=0;entryX=0.5;entryY=0;entryDx=0;entryDy=0;" edge="1" source="QpX_nXxIr_vmFLKxzl1e-55" target="QpX_nXxIr_vmFLKxzl1e-57" parent="WIyWlLk6GJQsqaUBKTNV-1">
          <mxGeometry relative="1" as="geometry" />
        </mxCell>
        <mxCell id="QpX_nXxIr_vmFLKxzl1e-55" value="step1 매칭 0건 데이터 가져오기" style="rounded=1;whiteSpace=wrap;html=1;" vertex="1" parent="WIyWlLk6GJQsqaUBKTNV-1">
          <mxGeometry x="90" y="1240" width="170" height="60" as="geometry" />
        </mxCell>
        <mxCell id="QpX_nXxIr_vmFLKxzl1e-56" style="edgeStyle=orthogonalEdgeStyle;rounded=0;orthogonalLoop=1;jettySize=auto;html=1;exitX=0.5;exitY=1;exitDx=0;exitDy=0;" edge="1" source="QpX_nXxIr_vmFLKxzl1e-57" target="QpX_nXxIr_vmFLKxzl1e-59" parent="WIyWlLk6GJQsqaUBKTNV-1">
          <mxGeometry relative="1" as="geometry" />
        </mxCell>
        <mxCell id="QpX_nXxIr_vmFLKxzl1e-57" value="시도별 반복" style="rounded=1;whiteSpace=wrap;html=1;" vertex="1" parent="WIyWlLk6GJQsqaUBKTNV-1">
          <mxGeometry x="90" y="1330" width="170" height="60" as="geometry" />
        </mxCell>
        <mxCell id="QpX_nXxIr_vmFLKxzl1e-58" style="edgeStyle=orthogonalEdgeStyle;rounded=0;orthogonalLoop=1;jettySize=auto;html=1;exitX=0.5;exitY=1;exitDx=0;exitDy=0;" edge="1" source="QpX_nXxIr_vmFLKxzl1e-59" parent="WIyWlLk6GJQsqaUBKTNV-1">
          <mxGeometry relative="1" as="geometry">
            <mxPoint x="175" y="1510" as="targetPoint" />
          </mxGeometry>
        </mxCell>
        <mxCell id="QpX_nXxIr_vmFLKxzl1e-59" value="연도별 반복 &amp;gt; 토지임야 / 토지소유공간 / 토지특성 join&lt;br&gt;소유권 변동, 기준연도, 비교&amp;nbsp;" style="rounded=1;whiteSpace=wrap;html=1;" vertex="1" parent="WIyWlLk6GJQsqaUBKTNV-1">
          <mxGeometry x="90" y="1420" width="170" height="60" as="geometry" />
        </mxCell>
        <mxCell id="QpX_nXxIr_vmFLKxzl1e-64" style="edgeStyle=orthogonalEdgeStyle;rounded=0;orthogonalLoop=1;jettySize=auto;html=1;exitX=0.5;exitY=1;exitDx=0;exitDy=0;entryX=0.5;entryY=0;entryDx=0;entryDy=0;" edge="1" parent="WIyWlLk6GJQsqaUBKTNV-1" source="QpX_nXxIr_vmFLKxzl1e-60" target="QpX_nXxIr_vmFLKxzl1e-62">
          <mxGeometry relative="1" as="geometry" />
        </mxCell>
        <mxCell id="QpX_nXxIr_vmFLKxzl1e-60" value="인접 지번(Ex. 1-1, 1-2) 있는 행만 있는 데이터 복사 / 인접 지번 면적 합산" style="rounded=1;whiteSpace=wrap;html=1;" vertex="1" parent="WIyWlLk6GJQsqaUBKTNV-1">
          <mxGeometry x="90" y="1510" width="170" height="60" as="geometry" />
        </mxCell>
        <mxCell id="QpX_nXxIr_vmFLKxzl1e-65" style="edgeStyle=orthogonalEdgeStyle;rounded=0;orthogonalLoop=1;jettySize=auto;html=1;exitX=0;exitY=0.5;exitDx=0;exitDy=0;entryX=0.5;entryY=0;entryDx=0;entryDy=0;" edge="1" parent="WIyWlLk6GJQsqaUBKTNV-1" source="QpX_nXxIr_vmFLKxzl1e-61" target="QpX_nXxIr_vmFLKxzl1e-62">
          <mxGeometry relative="1" as="geometry">
            <mxPoint y="1580" as="targetPoint" />
            <Array as="points">
              <mxPoint x="50" y="1730" />
              <mxPoint x="50" y="1580" />
              <mxPoint x="175" y="1580" />
            </Array>
          </mxGeometry>
        </mxCell>
        <mxCell id="QpX_nXxIr_vmFLKxzl1e-68" style="edgeStyle=orthogonalEdgeStyle;rounded=0;orthogonalLoop=1;jettySize=auto;html=1;exitX=0.5;exitY=1;exitDx=0;exitDy=0;entryX=0.5;entryY=0;entryDx=0;entryDy=0;" edge="1" parent="WIyWlLk6GJQsqaUBKTNV-1" source="QpX_nXxIr_vmFLKxzl1e-61" target="QpX_nXxIr_vmFLKxzl1e-67">
          <mxGeometry relative="1" as="geometry">
            <Array as="points">
              <mxPoint x="175" y="1790" />
              <mxPoint x="300" y="1790" />
              <mxPoint x="300" y="1210" />
              <mxPoint x="470" y="1210" />
            </Array>
          </mxGeometry>
        </mxCell>
        <mxCell id="QpX_nXxIr_vmFLKxzl1e-61" value="소유권 변동 연도 /&amp;nbsp;&lt;div&gt;면적 비슷 / 용도 지역 / 지목이 같은 데이터가 1개&lt;/div&gt;" style="rhombus;whiteSpace=wrap;html=1;" vertex="1" parent="WIyWlLk6GJQsqaUBKTNV-1">
          <mxGeometry x="70" y="1690" width="210" height="80" as="geometry" />
        </mxCell>
        <mxCell id="QpX_nXxIr_vmFLKxzl1e-66" style="edgeStyle=orthogonalEdgeStyle;rounded=0;orthogonalLoop=1;jettySize=auto;html=1;exitX=0.5;exitY=1;exitDx=0;exitDy=0;entryX=0.5;entryY=0;entryDx=0;entryDy=0;" edge="1" parent="WIyWlLk6GJQsqaUBKTNV-1" source="QpX_nXxIr_vmFLKxzl1e-62" target="QpX_nXxIr_vmFLKxzl1e-61">
          <mxGeometry relative="1" as="geometry" />
        </mxCell>
        <mxCell id="QpX_nXxIr_vmFLKxzl1e-62" value="가져온 데이터 row 별 순회&lt;div&gt;&lt;br&gt;&lt;/div&gt;" style="rounded=1;whiteSpace=wrap;html=1;" vertex="1" parent="WIyWlLk6GJQsqaUBKTNV-1">
          <mxGeometry x="90" y="1600" width="170" height="60" as="geometry" />
        </mxCell>
        <mxCell id="QpX_nXxIr_vmFLKxzl1e-71" style="edgeStyle=orthogonalEdgeStyle;rounded=0;orthogonalLoop=1;jettySize=auto;html=1;exitX=0.5;exitY=1;exitDx=0;exitDy=0;entryX=0.5;entryY=0;entryDx=0;entryDy=0;" edge="1" parent="WIyWlLk6GJQsqaUBKTNV-1" source="QpX_nXxIr_vmFLKxzl1e-67" target="QpX_nXxIr_vmFLKxzl1e-69">
          <mxGeometry relative="1" as="geometry" />
        </mxCell>
        <mxCell id="QpX_nXxIr_vmFLKxzl1e-67" value="소유권 변동 연도 /&amp;nbsp;&lt;div&gt;면적 비슷 / 용도 지역이 같은 데이터가 1개&lt;/div&gt;" style="rhombus;whiteSpace=wrap;html=1;" vertex="1" parent="WIyWlLk6GJQsqaUBKTNV-1">
          <mxGeometry x="340" y="1230" width="260" height="80" as="geometry" />
        </mxCell>
        <mxCell id="QpX_nXxIr_vmFLKxzl1e-72" style="edgeStyle=orthogonalEdgeStyle;rounded=0;orthogonalLoop=1;jettySize=auto;html=1;exitX=0.5;exitY=1;exitDx=0;exitDy=0;entryX=0.5;entryY=0;entryDx=0;entryDy=0;" edge="1" parent="WIyWlLk6GJQsqaUBKTNV-1" source="QpX_nXxIr_vmFLKxzl1e-69" target="QpX_nXxIr_vmFLKxzl1e-70">
          <mxGeometry relative="1" as="geometry" />
        </mxCell>
        <mxCell id="QpX_nXxIr_vmFLKxzl1e-73" style="edgeStyle=orthogonalEdgeStyle;rounded=0;orthogonalLoop=1;jettySize=auto;html=1;exitX=0;exitY=0.5;exitDx=0;exitDy=0;entryX=0.5;entryY=0;entryDx=0;entryDy=0;" edge="1" parent="WIyWlLk6GJQsqaUBKTNV-1" source="QpX_nXxIr_vmFLKxzl1e-69" target="QpX_nXxIr_vmFLKxzl1e-62">
          <mxGeometry relative="1" as="geometry">
            <Array as="points">
              <mxPoint x="310" y="1390" />
              <mxPoint x="310" y="1810" />
              <mxPoint x="50" y="1810" />
              <mxPoint x="50" y="1600" />
            </Array>
          </mxGeometry>
        </mxCell>
        <mxCell id="QpX_nXxIr_vmFLKxzl1e-69" value="인접 지번 있는 데이터 &lt;br&gt;소유권 변동 연도 / 합산&amp;nbsp;&lt;span style=&quot;background-color: initial;&quot;&gt;면적,거래 면적 비슷 / 용도 지역 / 지목이 같은 데이터가 1개&lt;/span&gt;" style="rhombus;whiteSpace=wrap;html=1;" vertex="1" parent="WIyWlLk6GJQsqaUBKTNV-1">
          <mxGeometry x="340" y="1340" width="260" height="100" as="geometry" />
        </mxCell>
        <mxCell id="QpX_nXxIr_vmFLKxzl1e-74" style="edgeStyle=orthogonalEdgeStyle;rounded=0;orthogonalLoop=1;jettySize=auto;html=1;exitX=0;exitY=0.5;exitDx=0;exitDy=0;entryX=0.5;entryY=0;entryDx=0;entryDy=0;" edge="1" parent="WIyWlLk6GJQsqaUBKTNV-1" source="QpX_nXxIr_vmFLKxzl1e-70" target="QpX_nXxIr_vmFLKxzl1e-62">
          <mxGeometry relative="1" as="geometry">
            <Array as="points">
              <mxPoint x="330" y="1520" />
              <mxPoint x="330" y="1820" />
              <mxPoint x="50" y="1820" />
              <mxPoint x="50" y="1600" />
            </Array>
          </mxGeometry>
        </mxCell>
        <mxCell id="QpX_nXxIr_vmFLKxzl1e-79" style="edgeStyle=orthogonalEdgeStyle;rounded=0;orthogonalLoop=1;jettySize=auto;html=1;exitX=0.5;exitY=1;exitDx=0;exitDy=0;entryX=0.5;entryY=0;entryDx=0;entryDy=0;" edge="1" parent="WIyWlLk6GJQsqaUBKTNV-1" source="QpX_nXxIr_vmFLKxzl1e-70" target="QpX_nXxIr_vmFLKxzl1e-76">
          <mxGeometry relative="1" as="geometry" />
        </mxCell>
        <mxCell id="QpX_nXxIr_vmFLKxzl1e-70" value="인접 지번 있는 데이터 &lt;br&gt;소유권 변동 연도 / 합산&amp;nbsp;&lt;span style=&quot;background-color: initial;&quot;&gt;면적,거래 면적 비슷 / 용도 지역이 같은 데이터가 1개&lt;/span&gt;" style="rhombus;whiteSpace=wrap;html=1;" vertex="1" parent="WIyWlLk6GJQsqaUBKTNV-1">
          <mxGeometry x="340" y="1470" width="260" height="100" as="geometry" />
        </mxCell>
        <mxCell id="QpX_nXxIr_vmFLKxzl1e-82" style="edgeStyle=orthogonalEdgeStyle;rounded=0;orthogonalLoop=1;jettySize=auto;html=1;exitX=0.5;exitY=1;exitDx=0;exitDy=0;entryX=0.5;entryY=0;entryDx=0;entryDy=0;" edge="1" parent="WIyWlLk6GJQsqaUBKTNV-1" source="QpX_nXxIr_vmFLKxzl1e-76" target="QpX_nXxIr_vmFLKxzl1e-78">
          <mxGeometry relative="1" as="geometry" />
        </mxCell>
        <mxCell id="QpX_nXxIr_vmFLKxzl1e-76" value="&lt;div&gt;매칭0 데이터 순회 종료시 db insert&amp;nbsp;&lt;br&gt;&lt;/div&gt;" style="rounded=1;whiteSpace=wrap;html=1;" vertex="1" parent="WIyWlLk6GJQsqaUBKTNV-1">
          <mxGeometry x="385" y="1610" width="170" height="60" as="geometry" />
        </mxCell>
        <mxCell id="QpX_nXxIr_vmFLKxzl1e-77" value="매칭0" style="text;html=1;align=center;verticalAlign=middle;resizable=0;points=[];autosize=1;strokeColor=none;fillColor=none;" vertex="1" parent="WIyWlLk6GJQsqaUBKTNV-1">
          <mxGeometry x="40" y="1420" width="50" height="30" as="geometry" />
        </mxCell>
        <mxCell id="QpX_nXxIr_vmFLKxzl1e-83" style="edgeStyle=orthogonalEdgeStyle;rounded=0;orthogonalLoop=1;jettySize=auto;html=1;exitX=0.5;exitY=1;exitDx=0;exitDy=0;entryX=0.5;entryY=0;entryDx=0;entryDy=0;" edge="1" parent="WIyWlLk6GJQsqaUBKTNV-1" source="QpX_nXxIr_vmFLKxzl1e-78" target="QpX_nXxIr_vmFLKxzl1e-81">
          <mxGeometry relative="1" as="geometry" />
        </mxCell>
        <mxCell id="QpX_nXxIr_vmFLKxzl1e-78" value="다중 매칭 데이터 가져오기" style="rounded=1;whiteSpace=wrap;html=1;" vertex="1" parent="WIyWlLk6GJQsqaUBKTNV-1">
          <mxGeometry x="385" y="1690" width="170" height="60" as="geometry" />
        </mxCell>
        <mxCell id="QpX_nXxIr_vmFLKxzl1e-80" value="다중매칭" style="text;html=1;align=center;verticalAlign=middle;resizable=0;points=[];autosize=1;strokeColor=none;fillColor=none;" vertex="1" parent="WIyWlLk6GJQsqaUBKTNV-1">
          <mxGeometry x="320" y="1690" width="70" height="30" as="geometry" />
        </mxCell>
        <mxCell id="QpX_nXxIr_vmFLKxzl1e-85" style="edgeStyle=orthogonalEdgeStyle;rounded=0;orthogonalLoop=1;jettySize=auto;html=1;exitX=0.5;exitY=1;exitDx=0;exitDy=0;entryX=0.5;entryY=0;entryDx=0;entryDy=0;" edge="1" parent="WIyWlLk6GJQsqaUBKTNV-1" source="QpX_nXxIr_vmFLKxzl1e-81" target="QpX_nXxIr_vmFLKxzl1e-86">
          <mxGeometry relative="1" as="geometry">
            <mxPoint x="790" y="1230" as="targetPoint" />
          </mxGeometry>
        </mxCell>
        <mxCell id="QpX_nXxIr_vmFLKxzl1e-81" value="시도 &amp;gt; 연도별 반복" style="rounded=1;whiteSpace=wrap;html=1;" vertex="1" parent="WIyWlLk6GJQsqaUBKTNV-1">
          <mxGeometry x="385" y="1770" width="170" height="60" as="geometry" />
        </mxCell>
        <mxCell id="QpX_nXxIr_vmFLKxzl1e-92" style="edgeStyle=orthogonalEdgeStyle;rounded=0;orthogonalLoop=1;jettySize=auto;html=1;" edge="1" parent="WIyWlLk6GJQsqaUBKTNV-1" source="QpX_nXxIr_vmFLKxzl1e-86" target="QpX_nXxIr_vmFLKxzl1e-91">
          <mxGeometry relative="1" as="geometry" />
        </mxCell>
        <mxCell id="QpX_nXxIr_vmFLKxzl1e-86" value="토지 임야, 토지 소유 공간 join&amp;nbsp; 소유권 변동 소유권 변동일 연도 비교 select" style="rounded=1;whiteSpace=wrap;html=1;" vertex="1" parent="WIyWlLk6GJQsqaUBKTNV-1">
          <mxGeometry x="700" y="1230" width="170" height="60" as="geometry" />
        </mxCell>
        <mxCell id="QpX_nXxIr_vmFLKxzl1e-94" style="edgeStyle=orthogonalEdgeStyle;rounded=0;orthogonalLoop=1;jettySize=auto;html=1;exitX=0;exitY=0.5;exitDx=0;exitDy=0;entryX=0.5;entryY=0;entryDx=0;entryDy=0;" edge="1" parent="WIyWlLk6GJQsqaUBKTNV-1" source="QpX_nXxIr_vmFLKxzl1e-88" target="QpX_nXxIr_vmFLKxzl1e-91">
          <mxGeometry relative="1" as="geometry">
            <Array as="points">
              <mxPoint x="650" y="1480" />
              <mxPoint x="650" y="1320" />
              <mxPoint x="785" y="1320" />
            </Array>
          </mxGeometry>
        </mxCell>
        <mxCell id="QpX_nXxIr_vmFLKxzl1e-96" style="edgeStyle=orthogonalEdgeStyle;rounded=0;orthogonalLoop=1;jettySize=auto;html=1;" edge="1" parent="WIyWlLk6GJQsqaUBKTNV-1" source="QpX_nXxIr_vmFLKxzl1e-88" target="QpX_nXxIr_vmFLKxzl1e-95">
          <mxGeometry relative="1" as="geometry" />
        </mxCell>
        <mxCell id="QpX_nXxIr_vmFLKxzl1e-88" value="다중 매칭된 지번 중 해당연도 소유권 변동된 지번이 1개" style="rhombus;whiteSpace=wrap;html=1;" vertex="1" parent="WIyWlLk6GJQsqaUBKTNV-1">
          <mxGeometry x="655" y="1430" width="260" height="100" as="geometry" />
        </mxCell>
        <mxCell id="QpX_nXxIr_vmFLKxzl1e-93" style="edgeStyle=orthogonalEdgeStyle;rounded=0;orthogonalLoop=1;jettySize=auto;html=1;" edge="1" parent="WIyWlLk6GJQsqaUBKTNV-1" source="QpX_nXxIr_vmFLKxzl1e-91" target="QpX_nXxIr_vmFLKxzl1e-88">
          <mxGeometry relative="1" as="geometry" />
        </mxCell>
        <mxCell id="QpX_nXxIr_vmFLKxzl1e-91" value="다중 매칭 data row 별 순회" style="rounded=1;whiteSpace=wrap;html=1;" vertex="1" parent="WIyWlLk6GJQsqaUBKTNV-1">
          <mxGeometry x="700" y="1340" width="170" height="60" as="geometry" />
        </mxCell>
        <mxCell id="QpX_nXxIr_vmFLKxzl1e-95" value="&lt;div&gt;다중 매잋 데이터 순회 종료시 db insert&amp;nbsp;&lt;br&gt;&lt;/div&gt;" style="rounded=1;whiteSpace=wrap;html=1;" vertex="1" parent="WIyWlLk6GJQsqaUBKTNV-1">
          <mxGeometry x="700" y="1580" width="170" height="60" as="geometry" />
        </mxCell>
        <mxCell id="QpX_nXxIr_vmFLKxzl1e-129" value="상업 업무/단독 다가구 지번 매칭 step1" style="text;html=1;align=center;verticalAlign=middle;resizable=0;points=[];autosize=1;strokeColor=none;fillColor=none;" vertex="1" parent="WIyWlLk6GJQsqaUBKTNV-1">
          <mxGeometry x="869.94" y="48.94" width="230" height="30" as="geometry" />
        </mxCell>
        <mxCell id="QpX_nXxIr_vmFLKxzl1e-130" style="edgeStyle=orthogonalEdgeStyle;rounded=0;orthogonalLoop=1;jettySize=auto;html=1;exitX=0.5;exitY=1;exitDx=0;exitDy=0;entryX=0.5;entryY=0;entryDx=0;entryDy=0;" edge="1" parent="WIyWlLk6GJQsqaUBKTNV-1" source="QpX_nXxIr_vmFLKxzl1e-131" target="QpX_nXxIr_vmFLKxzl1e-133">
          <mxGeometry relative="1" as="geometry" />
        </mxCell>
        <mxCell id="QpX_nXxIr_vmFLKxzl1e-131" value="지분 스킵, 시군구 표현 통일(Ex. 성남 수정구/성남시수정구, 세통특별시 공백 2번)" style="rounded=1;whiteSpace=wrap;html=1;" vertex="1" parent="WIyWlLk6GJQsqaUBKTNV-1">
          <mxGeometry x="919.94" y="78.94" width="170" height="60" as="geometry" />
        </mxCell>
        <mxCell id="QpX_nXxIr_vmFLKxzl1e-132" style="edgeStyle=orthogonalEdgeStyle;rounded=0;orthogonalLoop=1;jettySize=auto;html=1;exitX=0.5;exitY=1;exitDx=0;exitDy=0;" edge="1" parent="WIyWlLk6GJQsqaUBKTNV-1" source="QpX_nXxIr_vmFLKxzl1e-133" target="QpX_nXxIr_vmFLKxzl1e-137">
          <mxGeometry relative="1" as="geometry" />
        </mxCell>
        <mxCell id="QpX_nXxIr_vmFLKxzl1e-133" value="파일 단위 반복&lt;br&gt;nan 데이터 처리 / 기준 연도 변수 저장" style="rounded=1;whiteSpace=wrap;html=1;" vertex="1" parent="WIyWlLk6GJQsqaUBKTNV-1">
          <mxGeometry x="919.94" y="168.94" width="170" height="60" as="geometry" />
        </mxCell>
        <mxCell id="QpX_nXxIr_vmFLKxzl1e-134" style="edgeStyle=orthogonalEdgeStyle;rounded=0;orthogonalLoop=1;jettySize=auto;html=1;exitX=0.5;exitY=1;exitDx=0;exitDy=0;" edge="1" parent="WIyWlLk6GJQsqaUBKTNV-1" source="QpX_nXxIr_vmFLKxzl1e-135" target="QpX_nXxIr_vmFLKxzl1e-139">
          <mxGeometry relative="1" as="geometry" />
        </mxCell>
        <mxCell id="QpX_nXxIr_vmFLKxzl1e-135" value="건축물대장 기본 / 표제부 / 토지임야 / 토지특성 join&amp;gt; 시도별, 기준연도+- 1&amp;nbsp;" style="rounded=1;whiteSpace=wrap;html=1;" vertex="1" parent="WIyWlLk6GJQsqaUBKTNV-1">
          <mxGeometry x="919.94" y="348.94" width="170" height="60" as="geometry" />
        </mxCell>
        <mxCell id="QpX_nXxIr_vmFLKxzl1e-136" style="edgeStyle=orthogonalEdgeStyle;rounded=0;orthogonalLoop=1;jettySize=auto;html=1;exitX=0.5;exitY=1;exitDx=0;exitDy=0;" edge="1" parent="WIyWlLk6GJQsqaUBKTNV-1" source="QpX_nXxIr_vmFLKxzl1e-137" target="QpX_nXxIr_vmFLKxzl1e-135">
          <mxGeometry relative="1" as="geometry" />
        </mxCell>
        <mxCell id="QpX_nXxIr_vmFLKxzl1e-137" value="시구군 단위 반복" style="rounded=1;whiteSpace=wrap;html=1;" vertex="1" parent="WIyWlLk6GJQsqaUBKTNV-1">
          <mxGeometry x="919.94" y="258.94" width="170" height="60" as="geometry" />
        </mxCell>
        <mxCell id="QpX_nXxIr_vmFLKxzl1e-138" style="edgeStyle=orthogonalEdgeStyle;rounded=0;orthogonalLoop=1;jettySize=auto;html=1;exitX=0.5;exitY=1;exitDx=0;exitDy=0;entryX=0.5;entryY=0;entryDx=0;entryDy=0;" edge="1" parent="WIyWlLk6GJQsqaUBKTNV-1" source="QpX_nXxIr_vmFLKxzl1e-139" target="QpX_nXxIr_vmFLKxzl1e-141">
          <mxGeometry relative="1" as="geometry" />
        </mxCell>
        <mxCell id="QpX_nXxIr_vmFLKxzl1e-139" value="파일 row 순회&lt;br&gt;지분 스킵, 시군구 표현 통일,&lt;br&gt;실거래가 번지 표현 변경&amp;nbsp;" style="rounded=1;whiteSpace=wrap;html=1;" vertex="1" parent="WIyWlLk6GJQsqaUBKTNV-1">
          <mxGeometry x="919.94" y="438.94" width="170" height="60" as="geometry" />
        </mxCell>
        <mxCell id="QpX_nXxIr_vmFLKxzl1e-140" style="edgeStyle=orthogonalEdgeStyle;rounded=0;orthogonalLoop=1;jettySize=auto;html=1;exitX=0.5;exitY=1;exitDx=0;exitDy=0;entryX=0.5;entryY=0;entryDx=0;entryDy=0;" edge="1" parent="WIyWlLk6GJQsqaUBKTNV-1" source="QpX_nXxIr_vmFLKxzl1e-141" target="QpX_nXxIr_vmFLKxzl1e-144">
          <mxGeometry relative="1" as="geometry" />
        </mxCell>
        <mxCell id="QpX_nXxIr_vmFLKxzl1e-141" value="가져온 데이터 법정동명 맞는 데이터만 복사" style="rounded=1;whiteSpace=wrap;html=1;" vertex="1" parent="WIyWlLk6GJQsqaUBKTNV-1">
          <mxGeometry x="919.94" y="528.94" width="170" height="60" as="geometry" />
        </mxCell>
        <mxCell id="QpX_nXxIr_vmFLKxzl1e-142" style="edgeStyle=orthogonalEdgeStyle;rounded=0;orthogonalLoop=1;jettySize=auto;html=1;exitX=0;exitY=0.5;exitDx=0;exitDy=0;entryX=0.5;entryY=0;entryDx=0;entryDy=0;" edge="1" parent="WIyWlLk6GJQsqaUBKTNV-1" source="QpX_nXxIr_vmFLKxzl1e-144" target="QpX_nXxIr_vmFLKxzl1e-139">
          <mxGeometry relative="1" as="geometry">
            <mxPoint x="879.94" y="368.94" as="targetPoint" />
            <Array as="points">
              <mxPoint x="895" y="670" />
              <mxPoint x="880" y="670" />
              <mxPoint x="880" y="419" />
              <mxPoint x="1005" y="419" />
            </Array>
          </mxGeometry>
        </mxCell>
        <mxCell id="QpX_nXxIr_vmFLKxzl1e-143" style="edgeStyle=orthogonalEdgeStyle;rounded=0;orthogonalLoop=1;jettySize=auto;html=1;exitX=0.5;exitY=1;exitDx=0;exitDy=0;entryX=0.5;entryY=0;entryDx=0;entryDy=0;" edge="1" parent="WIyWlLk6GJQsqaUBKTNV-1" source="QpX_nXxIr_vmFLKxzl1e-144" target="QpX_nXxIr_vmFLKxzl1e-147">
          <mxGeometry relative="1" as="geometry">
            <mxPoint x="1274.94" y="78.94" as="targetPoint" />
            <Array as="points">
              <mxPoint x="1004.94" y="718.94" />
              <mxPoint x="1119.94" y="718.94" />
              <mxPoint x="1119.94" y="58.94" />
              <mxPoint x="1264.94" y="58.94" />
            </Array>
          </mxGeometry>
        </mxCell>
        <mxCell id="QpX_nXxIr_vmFLKxzl1e-144" value="가져온 데이터와 비교 거래년도 == 기준년도 / 도로명 / 도로조건/ 연면적 비슷/ 대지면적 비슷 데이터가 1개" style="rhombus;whiteSpace=wrap;html=1;" vertex="1" parent="WIyWlLk6GJQsqaUBKTNV-1">
          <mxGeometry x="894.91" y="619" width="220.06" height="91" as="geometry" />
        </mxCell>
        <mxCell id="QpX_nXxIr_vmFLKxzl1e-145" style="edgeStyle=orthogonalEdgeStyle;rounded=0;orthogonalLoop=1;jettySize=auto;html=1;exitX=0;exitY=0.5;exitDx=0;exitDy=0;entryX=0.5;entryY=0;entryDx=0;entryDy=0;" edge="1" parent="WIyWlLk6GJQsqaUBKTNV-1" source="QpX_nXxIr_vmFLKxzl1e-147" target="QpX_nXxIr_vmFLKxzl1e-139">
          <mxGeometry relative="1" as="geometry">
            <Array as="points">
              <mxPoint x="1139.94" y="123.94" />
              <mxPoint x="1139.94" y="748.94" />
              <mxPoint x="879.94" y="748.94" />
              <mxPoint x="879.94" y="438.94" />
            </Array>
          </mxGeometry>
        </mxCell>
        <mxCell id="QpX_nXxIr_vmFLKxzl1e-146" style="edgeStyle=orthogonalEdgeStyle;rounded=0;orthogonalLoop=1;jettySize=auto;html=1;exitX=0.5;exitY=1;exitDx=0;exitDy=0;entryX=0.5;entryY=0;entryDx=0;entryDy=0;" edge="1" parent="WIyWlLk6GJQsqaUBKTNV-1" source="QpX_nXxIr_vmFLKxzl1e-147" target="QpX_nXxIr_vmFLKxzl1e-152">
          <mxGeometry relative="1" as="geometry" />
        </mxCell>
        <mxCell id="QpX_nXxIr_vmFLKxzl1e-147" value="&lt;div&gt;거래년도 == 기준년도 - 1 / 도로명 / 도로조건/ 연면적 비슷/ 대지면적 비슷 데이터가 1개&lt;/div&gt;" style="rhombus;whiteSpace=wrap;html=1;" vertex="1" parent="WIyWlLk6GJQsqaUBKTNV-1">
          <mxGeometry x="1159.94" y="78.94" width="210" height="90" as="geometry" />
        </mxCell>
        <mxCell id="QpX_nXxIr_vmFLKxzl1e-148" value="Depth1" style="text;html=1;align=center;verticalAlign=middle;resizable=0;points=[];autosize=1;strokeColor=none;fillColor=none;" vertex="1" parent="WIyWlLk6GJQsqaUBKTNV-1">
          <mxGeometry x="899.94" y="598.94" width="60" height="30" as="geometry" />
        </mxCell>
        <mxCell id="QpX_nXxIr_vmFLKxzl1e-149" value="Depth2" style="text;html=1;align=center;verticalAlign=middle;resizable=0;points=[];autosize=1;strokeColor=none;fillColor=none;" vertex="1" parent="WIyWlLk6GJQsqaUBKTNV-1">
          <mxGeometry x="1159.94" y="58.94" width="60" height="30" as="geometry" />
        </mxCell>
        <mxCell id="QpX_nXxIr_vmFLKxzl1e-150" style="edgeStyle=orthogonalEdgeStyle;rounded=0;orthogonalLoop=1;jettySize=auto;html=1;exitX=0.5;exitY=1;exitDx=0;exitDy=0;entryX=0.5;entryY=0;entryDx=0;entryDy=0;" edge="1" parent="WIyWlLk6GJQsqaUBKTNV-1" source="QpX_nXxIr_vmFLKxzl1e-152" target="QpX_nXxIr_vmFLKxzl1e-155">
          <mxGeometry relative="1" as="geometry" />
        </mxCell>
        <mxCell id="QpX_nXxIr_vmFLKxzl1e-151" style="edgeStyle=orthogonalEdgeStyle;rounded=0;orthogonalLoop=1;jettySize=auto;html=1;exitX=0;exitY=0.5;exitDx=0;exitDy=0;entryX=0.5;entryY=0;entryDx=0;entryDy=0;" edge="1" parent="WIyWlLk6GJQsqaUBKTNV-1" source="QpX_nXxIr_vmFLKxzl1e-152" target="QpX_nXxIr_vmFLKxzl1e-139">
          <mxGeometry relative="1" as="geometry">
            <Array as="points">
              <mxPoint x="1149.94" y="233.94" />
              <mxPoint x="1149.94" y="768.94" />
              <mxPoint x="879.94" y="768.94" />
              <mxPoint x="879.94" y="438.94" />
            </Array>
          </mxGeometry>
        </mxCell>
        <mxCell id="QpX_nXxIr_vmFLKxzl1e-152" value="&lt;div&gt;거래년도 == 기준년도 + 1 / 도로명 / 도로조건/ 연면적 비슷/ 대지면적 비슷 데이터가 1개&lt;/div&gt;" style="rhombus;whiteSpace=wrap;html=1;" vertex="1" parent="WIyWlLk6GJQsqaUBKTNV-1">
          <mxGeometry x="1159.94" y="188.94" width="210" height="90" as="geometry" />
        </mxCell>
        <mxCell id="QpX_nXxIr_vmFLKxzl1e-153" style="edgeStyle=orthogonalEdgeStyle;rounded=0;orthogonalLoop=1;jettySize=auto;html=1;entryX=0.5;entryY=0;entryDx=0;entryDy=0;exitX=0;exitY=0.5;exitDx=0;exitDy=0;" edge="1" parent="WIyWlLk6GJQsqaUBKTNV-1" source="QpX_nXxIr_vmFLKxzl1e-155" target="QpX_nXxIr_vmFLKxzl1e-139">
          <mxGeometry relative="1" as="geometry">
            <mxPoint x="1264.94" y="388.94" as="sourcePoint" />
            <Array as="points">
              <mxPoint x="1159.94" y="788.94" />
              <mxPoint x="879.94" y="788.94" />
              <mxPoint x="879.94" y="438.94" />
            </Array>
          </mxGeometry>
        </mxCell>
        <mxCell id="QpX_nXxIr_vmFLKxzl1e-175" style="edgeStyle=orthogonalEdgeStyle;rounded=0;orthogonalLoop=1;jettySize=auto;html=1;exitX=0.5;exitY=1;exitDx=0;exitDy=0;entryX=0.5;entryY=0;entryDx=0;entryDy=0;" edge="1" parent="WIyWlLk6GJQsqaUBKTNV-1" source="QpX_nXxIr_vmFLKxzl1e-155" target="QpX_nXxIr_vmFLKxzl1e-162">
          <mxGeometry relative="1" as="geometry" />
        </mxCell>
        <mxCell id="QpX_nXxIr_vmFLKxzl1e-155" value="&lt;div&gt;거래년도 == 기준년도 / 도로명 / (용도지역 상업만) / 연면적 비슷 / 대지면적 비슷 데이터가 1개&lt;/div&gt;" style="rhombus;whiteSpace=wrap;html=1;" vertex="1" parent="WIyWlLk6GJQsqaUBKTNV-1">
          <mxGeometry x="1159.94" y="298.94" width="210" height="90" as="geometry" />
        </mxCell>
        <mxCell id="QpX_nXxIr_vmFLKxzl1e-156" value="Depth3" style="text;html=1;align=center;verticalAlign=middle;resizable=0;points=[];autosize=1;strokeColor=none;fillColor=none;" vertex="1" parent="WIyWlLk6GJQsqaUBKTNV-1">
          <mxGeometry x="1159.94" y="168.94" width="60" height="30" as="geometry" />
        </mxCell>
        <mxCell id="QpX_nXxIr_vmFLKxzl1e-157" value="Depth4" style="text;html=1;align=center;verticalAlign=middle;resizable=0;points=[];autosize=1;strokeColor=none;fillColor=none;" vertex="1" parent="WIyWlLk6GJQsqaUBKTNV-1">
          <mxGeometry x="1159.94" y="278.94" width="60" height="30" as="geometry" />
        </mxCell>
        <mxCell id="QpX_nXxIr_vmFLKxzl1e-158" style="edgeStyle=orthogonalEdgeStyle;rounded=0;orthogonalLoop=1;jettySize=auto;html=1;exitX=0.5;exitY=1;exitDx=0;exitDy=0;" edge="1" parent="WIyWlLk6GJQsqaUBKTNV-1" source="QpX_nXxIr_vmFLKxzl1e-159">
          <mxGeometry relative="1" as="geometry">
            <mxPoint x="742" y="729" as="targetPoint" />
          </mxGeometry>
        </mxCell>
        <mxCell id="QpX_nXxIr_vmFLKxzl1e-159" value="뎁스별 매칭 된 번지들 저장(매칭 없음 or 다중 매칭)&lt;div&gt;dbInsert 리스트에 저장&lt;/div&gt;" style="rounded=1;whiteSpace=wrap;html=1;" vertex="1" parent="WIyWlLk6GJQsqaUBKTNV-1">
          <mxGeometry x="657" y="619" width="170" height="60" as="geometry" />
        </mxCell>
        <mxCell id="QpX_nXxIr_vmFLKxzl1e-160" value="파일 순회 종료시 db insert&amp;nbsp;" style="rounded=1;whiteSpace=wrap;html=1;" vertex="1" parent="WIyWlLk6GJQsqaUBKTNV-1">
          <mxGeometry x="657" y="729" width="170" height="60" as="geometry" />
        </mxCell>
        <mxCell id="QpX_nXxIr_vmFLKxzl1e-161" style="edgeStyle=orthogonalEdgeStyle;rounded=0;orthogonalLoop=1;jettySize=auto;html=1;exitX=0.5;exitY=1;exitDx=0;exitDy=0;entryX=0.5;entryY=0;entryDx=0;entryDy=0;" edge="1" source="QpX_nXxIr_vmFLKxzl1e-162" target="QpX_nXxIr_vmFLKxzl1e-164" parent="WIyWlLk6GJQsqaUBKTNV-1">
          <mxGeometry relative="1" as="geometry" />
        </mxCell>
        <mxCell id="QpX_nXxIr_vmFLKxzl1e-162" value="&lt;div&gt;거래년도 == 기준년도 - 1 /&amp;nbsp;&lt;span style=&quot;background-color: initial;&quot;&gt;도로명 / (용도지역 상업만) / 연면적 비슷 / 대지면적 비슷 데이터가 1개&lt;/span&gt;&lt;/div&gt;" style="rhombus;whiteSpace=wrap;html=1;" vertex="1" parent="WIyWlLk6GJQsqaUBKTNV-1">
          <mxGeometry x="1159.94" y="409" width="210" height="90" as="geometry" />
        </mxCell>
        <mxCell id="QpX_nXxIr_vmFLKxzl1e-163" style="edgeStyle=orthogonalEdgeStyle;rounded=0;orthogonalLoop=1;jettySize=auto;html=1;exitX=0.5;exitY=1;exitDx=0;exitDy=0;entryX=0.5;entryY=0;entryDx=0;entryDy=0;" edge="1" source="QpX_nXxIr_vmFLKxzl1e-164" target="QpX_nXxIr_vmFLKxzl1e-165" parent="WIyWlLk6GJQsqaUBKTNV-1">
          <mxGeometry relative="1" as="geometry" />
        </mxCell>
        <mxCell id="QpX_nXxIr_vmFLKxzl1e-164" value="&lt;div&gt;거래년도 == 기준년도 + 1 /&amp;nbsp;&lt;span style=&quot;background-color: initial;&quot;&gt;도로명 / (용도지역 상업만) / 연면적 비슷 / 대지면적 비슷 데이터가 1개&lt;/span&gt;&lt;/div&gt;" style="rhombus;whiteSpace=wrap;html=1;" vertex="1" parent="WIyWlLk6GJQsqaUBKTNV-1">
          <mxGeometry x="1159.94" y="519" width="210" height="90" as="geometry" />
        </mxCell>
        <mxCell id="QpX_nXxIr_vmFLKxzl1e-180" style="edgeStyle=orthogonalEdgeStyle;rounded=0;orthogonalLoop=1;jettySize=auto;html=1;exitX=0.5;exitY=1;exitDx=0;exitDy=0;entryX=0.5;entryY=0;entryDx=0;entryDy=0;" edge="1" parent="WIyWlLk6GJQsqaUBKTNV-1" source="QpX_nXxIr_vmFLKxzl1e-165" target="QpX_nXxIr_vmFLKxzl1e-177">
          <mxGeometry relative="1" as="geometry">
            <Array as="points">
              <mxPoint x="1265" y="739" />
              <mxPoint x="1380" y="739" />
              <mxPoint x="1380" y="59" />
              <mxPoint x="1525" y="59" />
            </Array>
          </mxGeometry>
        </mxCell>
        <mxCell id="QpX_nXxIr_vmFLKxzl1e-165" value="&lt;div&gt;거래년도 == 기준년도 / 도로명 / 도로조건 / 대지면적 비슷 데이터가 1개&lt;/div&gt;" style="rhombus;whiteSpace=wrap;html=1;" vertex="1" parent="WIyWlLk6GJQsqaUBKTNV-1">
          <mxGeometry x="1159.94" y="629" width="210" height="90" as="geometry" />
        </mxCell>
        <mxCell id="QpX_nXxIr_vmFLKxzl1e-166" value="Depth6" style="text;html=1;align=center;verticalAlign=middle;resizable=0;points=[];autosize=1;strokeColor=none;fillColor=none;" vertex="1" parent="WIyWlLk6GJQsqaUBKTNV-1">
          <mxGeometry x="1159.94" y="499" width="60" height="30" as="geometry" />
        </mxCell>
        <mxCell id="QpX_nXxIr_vmFLKxzl1e-167" value="Depth7" style="text;html=1;align=center;verticalAlign=middle;resizable=0;points=[];autosize=1;strokeColor=none;fillColor=none;" vertex="1" parent="WIyWlLk6GJQsqaUBKTNV-1">
          <mxGeometry x="1159.94" y="609" width="60" height="30" as="geometry" />
        </mxCell>
        <mxCell id="QpX_nXxIr_vmFLKxzl1e-176" value="Depth5" style="text;html=1;align=center;verticalAlign=middle;resizable=0;points=[];autosize=1;strokeColor=none;fillColor=none;" vertex="1" parent="WIyWlLk6GJQsqaUBKTNV-1">
          <mxGeometry x="1150" y="388" width="60" height="30" as="geometry" />
        </mxCell>
        <mxCell id="QpX_nXxIr_vmFLKxzl1e-181" style="edgeStyle=orthogonalEdgeStyle;rounded=0;orthogonalLoop=1;jettySize=auto;html=1;exitX=0.5;exitY=1;exitDx=0;exitDy=0;entryX=0.5;entryY=0;entryDx=0;entryDy=0;" edge="1" parent="WIyWlLk6GJQsqaUBKTNV-1" source="QpX_nXxIr_vmFLKxzl1e-177" target="QpX_nXxIr_vmFLKxzl1e-178">
          <mxGeometry relative="1" as="geometry" />
        </mxCell>
        <mxCell id="QpX_nXxIr_vmFLKxzl1e-192" style="edgeStyle=orthogonalEdgeStyle;rounded=0;orthogonalLoop=1;jettySize=auto;html=1;exitX=0;exitY=0.5;exitDx=0;exitDy=0;entryX=0.5;entryY=0;entryDx=0;entryDy=0;" edge="1" parent="WIyWlLk6GJQsqaUBKTNV-1" source="QpX_nXxIr_vmFLKxzl1e-177" target="QpX_nXxIr_vmFLKxzl1e-139">
          <mxGeometry relative="1" as="geometry">
            <Array as="points">
              <mxPoint x="1420" y="790" />
              <mxPoint x="880" y="790" />
              <mxPoint x="880" y="439" />
            </Array>
          </mxGeometry>
        </mxCell>
        <mxCell id="QpX_nXxIr_vmFLKxzl1e-177" value="&lt;div&gt;거래년도 == 기준년도 -1 / 도로명 / 도로조건 / 대지면적 비슷 데이터가 1개&lt;/div&gt;" style="rhombus;whiteSpace=wrap;html=1;" vertex="1" parent="WIyWlLk6GJQsqaUBKTNV-1">
          <mxGeometry x="1420" y="78.94000000000005" width="210" height="90" as="geometry" />
        </mxCell>
        <mxCell id="QpX_nXxIr_vmFLKxzl1e-182" style="edgeStyle=orthogonalEdgeStyle;rounded=0;orthogonalLoop=1;jettySize=auto;html=1;exitX=0.5;exitY=1;exitDx=0;exitDy=0;" edge="1" parent="WIyWlLk6GJQsqaUBKTNV-1" source="QpX_nXxIr_vmFLKxzl1e-178" target="QpX_nXxIr_vmFLKxzl1e-179">
          <mxGeometry relative="1" as="geometry" />
        </mxCell>
        <mxCell id="QpX_nXxIr_vmFLKxzl1e-178" value="&lt;div&gt;거래년도 == 기준년도 +1 / 도로명 / 도로조건 / 대지면적 비슷 데이터가 1개&lt;/div&gt;" style="rhombus;whiteSpace=wrap;html=1;" vertex="1" parent="WIyWlLk6GJQsqaUBKTNV-1">
          <mxGeometry x="1420" y="198.94000000000005" width="210" height="90" as="geometry" />
        </mxCell>
        <mxCell id="QpX_nXxIr_vmFLKxzl1e-188" style="edgeStyle=orthogonalEdgeStyle;rounded=0;orthogonalLoop=1;jettySize=auto;html=1;exitX=0.5;exitY=1;exitDx=0;exitDy=0;entryX=0.5;entryY=0;entryDx=0;entryDy=0;" edge="1" parent="WIyWlLk6GJQsqaUBKTNV-1" source="QpX_nXxIr_vmFLKxzl1e-179" target="QpX_nXxIr_vmFLKxzl1e-186">
          <mxGeometry relative="1" as="geometry" />
        </mxCell>
        <mxCell id="QpX_nXxIr_vmFLKxzl1e-179" value="&lt;div&gt;&lt;span style=&quot;background-color: initial;&quot;&gt;거래년도 == 기준년도 /&amp;nbsp;&lt;/span&gt;도로조건 / 연면적 비슷 / 대지면적 비슷 데이터가 1개&lt;/div&gt;" style="rhombus;whiteSpace=wrap;html=1;" vertex="1" parent="WIyWlLk6GJQsqaUBKTNV-1">
          <mxGeometry x="1420" y="318.94000000000005" width="210" height="90" as="geometry" />
        </mxCell>
        <mxCell id="QpX_nXxIr_vmFLKxzl1e-183" value="Depth8" style="text;html=1;align=center;verticalAlign=middle;resizable=0;points=[];autosize=1;strokeColor=none;fillColor=none;" vertex="1" parent="WIyWlLk6GJQsqaUBKTNV-1">
          <mxGeometry x="1420" y="65" width="60" height="30" as="geometry" />
        </mxCell>
        <mxCell id="QpX_nXxIr_vmFLKxzl1e-184" value="Depth9" style="text;html=1;align=center;verticalAlign=middle;resizable=0;points=[];autosize=1;strokeColor=none;fillColor=none;" vertex="1" parent="WIyWlLk6GJQsqaUBKTNV-1">
          <mxGeometry x="1420" y="183.94" width="60" height="30" as="geometry" />
        </mxCell>
        <mxCell id="QpX_nXxIr_vmFLKxzl1e-185" value="Depth11" style="text;html=1;align=center;verticalAlign=middle;resizable=0;points=[];autosize=1;strokeColor=none;fillColor=none;" vertex="1" parent="WIyWlLk6GJQsqaUBKTNV-1">
          <mxGeometry x="1415" y="310" width="70" height="30" as="geometry" />
        </mxCell>
        <mxCell id="QpX_nXxIr_vmFLKxzl1e-189" style="edgeStyle=orthogonalEdgeStyle;rounded=0;orthogonalLoop=1;jettySize=auto;html=1;exitX=0.5;exitY=1;exitDx=0;exitDy=0;entryX=0.5;entryY=0;entryDx=0;entryDy=0;" edge="1" parent="WIyWlLk6GJQsqaUBKTNV-1" source="QpX_nXxIr_vmFLKxzl1e-186" target="QpX_nXxIr_vmFLKxzl1e-187">
          <mxGeometry relative="1" as="geometry" />
        </mxCell>
        <mxCell id="QpX_nXxIr_vmFLKxzl1e-186" value="&lt;div&gt;&lt;span style=&quot;background-color: initial;&quot;&gt;거래년도 == 기준년도 -1 /&amp;nbsp;&lt;/span&gt;도로조건 / 연면적 비슷 / 대지면적 비슷 데이터가 1개&lt;/div&gt;" style="rhombus;whiteSpace=wrap;html=1;" vertex="1" parent="WIyWlLk6GJQsqaUBKTNV-1">
          <mxGeometry x="1420" y="438.94000000000005" width="210" height="90" as="geometry" />
        </mxCell>
        <mxCell id="QpX_nXxIr_vmFLKxzl1e-196" style="edgeStyle=orthogonalEdgeStyle;rounded=0;orthogonalLoop=1;jettySize=auto;html=1;exitX=0.5;exitY=1;exitDx=0;exitDy=0;" edge="1" parent="WIyWlLk6GJQsqaUBKTNV-1" source="QpX_nXxIr_vmFLKxzl1e-187" target="QpX_nXxIr_vmFLKxzl1e-194">
          <mxGeometry relative="1" as="geometry" />
        </mxCell>
        <mxCell id="QpX_nXxIr_vmFLKxzl1e-187" value="&lt;div&gt;&lt;span style=&quot;background-color: initial;&quot;&gt;거래년도 == 기준년도 +1 /&amp;nbsp;&lt;/span&gt;도로조건 / 연면적 비슷 / 대지면적 비슷 데이터가 1개&lt;/div&gt;" style="rhombus;whiteSpace=wrap;html=1;" vertex="1" parent="WIyWlLk6GJQsqaUBKTNV-1">
          <mxGeometry x="1420" y="560" width="210" height="90" as="geometry" />
        </mxCell>
        <mxCell id="QpX_nXxIr_vmFLKxzl1e-190" value="Depth12" style="text;html=1;align=center;verticalAlign=middle;resizable=0;points=[];autosize=1;strokeColor=none;fillColor=none;" vertex="1" parent="WIyWlLk6GJQsqaUBKTNV-1">
          <mxGeometry x="1410" y="429" width="70" height="30" as="geometry" />
        </mxCell>
        <mxCell id="QpX_nXxIr_vmFLKxzl1e-191" value="Depth13" style="text;html=1;align=center;verticalAlign=middle;resizable=0;points=[];autosize=1;strokeColor=none;fillColor=none;" vertex="1" parent="WIyWlLk6GJQsqaUBKTNV-1">
          <mxGeometry x="1410" y="555" width="70" height="30" as="geometry" />
        </mxCell>
        <mxCell id="QpX_nXxIr_vmFLKxzl1e-193" style="edgeStyle=orthogonalEdgeStyle;rounded=0;orthogonalLoop=1;jettySize=auto;html=1;exitX=0.5;exitY=1;exitDx=0;exitDy=0;" edge="1" parent="WIyWlLk6GJQsqaUBKTNV-1" source="QpX_nXxIr_vmFLKxzl1e-194">
          <mxGeometry relative="1" as="geometry">
            <mxPoint x="1525" y="789" as="targetPoint" />
          </mxGeometry>
        </mxCell>
        <mxCell id="QpX_nXxIr_vmFLKxzl1e-194" value="뎁스별 매칭 된 번지들 저장(매칭 없음 or 다중 매칭)&lt;div&gt;dbInsert 리스트에 저장&lt;/div&gt;" style="rounded=1;whiteSpace=wrap;html=1;" vertex="1" parent="WIyWlLk6GJQsqaUBKTNV-1">
          <mxGeometry x="1440" y="679" width="170" height="60" as="geometry" />
        </mxCell>
        <mxCell id="QpX_nXxIr_vmFLKxzl1e-195" value="파일 순회 종료시 db insert&amp;nbsp;" style="rounded=1;whiteSpace=wrap;html=1;" vertex="1" parent="WIyWlLk6GJQsqaUBKTNV-1">
          <mxGeometry x="1440" y="789" width="170" height="60" as="geometry" />
        </mxCell>
        <mxCell id="QpX_nXxIr_vmFLKxzl1e-197" value="상업 업무/단독 다가구 지번 매칭 step2" style="text;html=1;align=center;verticalAlign=middle;resizable=0;points=[];autosize=1;strokeColor=none;fillColor=none;" vertex="1" parent="WIyWlLk6GJQsqaUBKTNV-1">
          <mxGeometry x="970" y="1230" width="230" height="30" as="geometry" />
        </mxCell>
        <mxCell id="QpX_nXxIr_vmFLKxzl1e-198" style="edgeStyle=orthogonalEdgeStyle;rounded=0;orthogonalLoop=1;jettySize=auto;html=1;exitX=0.5;exitY=1;exitDx=0;exitDy=0;entryX=0.5;entryY=0;entryDx=0;entryDy=0;" edge="1" source="QpX_nXxIr_vmFLKxzl1e-199" target="QpX_nXxIr_vmFLKxzl1e-201" parent="WIyWlLk6GJQsqaUBKTNV-1">
          <mxGeometry relative="1" as="geometry" />
        </mxCell>
        <mxCell id="QpX_nXxIr_vmFLKxzl1e-199" value="step1 매칭 0건 데이터 가져오기" style="rounded=1;whiteSpace=wrap;html=1;" vertex="1" parent="WIyWlLk6GJQsqaUBKTNV-1">
          <mxGeometry x="1020" y="1260" width="170" height="60" as="geometry" />
        </mxCell>
        <mxCell id="QpX_nXxIr_vmFLKxzl1e-200" style="edgeStyle=orthogonalEdgeStyle;rounded=0;orthogonalLoop=1;jettySize=auto;html=1;exitX=0.5;exitY=1;exitDx=0;exitDy=0;" edge="1" source="QpX_nXxIr_vmFLKxzl1e-201" target="QpX_nXxIr_vmFLKxzl1e-203" parent="WIyWlLk6GJQsqaUBKTNV-1">
          <mxGeometry relative="1" as="geometry" />
        </mxCell>
        <mxCell id="QpX_nXxIr_vmFLKxzl1e-201" value="시도별 반복" style="rounded=1;whiteSpace=wrap;html=1;" vertex="1" parent="WIyWlLk6GJQsqaUBKTNV-1">
          <mxGeometry x="1020" y="1350" width="170" height="60" as="geometry" />
        </mxCell>
        <mxCell id="QpX_nXxIr_vmFLKxzl1e-202" style="edgeStyle=orthogonalEdgeStyle;rounded=0;orthogonalLoop=1;jettySize=auto;html=1;exitX=0.5;exitY=1;exitDx=0;exitDy=0;" edge="1" source="QpX_nXxIr_vmFLKxzl1e-203" parent="WIyWlLk6GJQsqaUBKTNV-1">
          <mxGeometry relative="1" as="geometry">
            <mxPoint x="1105" y="1530" as="targetPoint" />
          </mxGeometry>
        </mxCell>
        <mxCell id="QpX_nXxIr_vmFLKxzl1e-203" value="연도별 반복 &amp;gt; 표제부, 기본, 토지임야, 토지특성, 토지소유공간 시도,토지 소유권 변동 기준 select&amp;nbsp;" style="rounded=1;whiteSpace=wrap;html=1;" vertex="1" parent="WIyWlLk6GJQsqaUBKTNV-1">
          <mxGeometry x="1020" y="1440" width="170" height="60" as="geometry" />
        </mxCell>
        <mxCell id="QpX_nXxIr_vmFLKxzl1e-204" style="edgeStyle=orthogonalEdgeStyle;rounded=0;orthogonalLoop=1;jettySize=auto;html=1;exitX=0.5;exitY=1;exitDx=0;exitDy=0;entryX=0.5;entryY=0;entryDx=0;entryDy=0;" edge="1" source="QpX_nXxIr_vmFLKxzl1e-205" target="QpX_nXxIr_vmFLKxzl1e-210" parent="WIyWlLk6GJQsqaUBKTNV-1">
          <mxGeometry relative="1" as="geometry" />
        </mxCell>
        <mxCell id="QpX_nXxIr_vmFLKxzl1e-205" value="도로명, 소유권 변동 전처리 / 연도별 순회 / 해당연도,전년도,차년도 데이터프레임 각각생성" style="rounded=1;whiteSpace=wrap;html=1;" vertex="1" parent="WIyWlLk6GJQsqaUBKTNV-1">
          <mxGeometry x="1020" y="1530" width="170" height="60" as="geometry" />
        </mxCell>
        <mxCell id="QpX_nXxIr_vmFLKxzl1e-206" style="edgeStyle=orthogonalEdgeStyle;rounded=0;orthogonalLoop=1;jettySize=auto;html=1;exitX=0;exitY=0.5;exitDx=0;exitDy=0;entryX=0.5;entryY=0;entryDx=0;entryDy=0;" edge="1" source="QpX_nXxIr_vmFLKxzl1e-208" target="QpX_nXxIr_vmFLKxzl1e-210" parent="WIyWlLk6GJQsqaUBKTNV-1">
          <mxGeometry relative="1" as="geometry">
            <mxPoint x="930" y="1600" as="targetPoint" />
            <Array as="points">
              <mxPoint x="980" y="1750" />
              <mxPoint x="980" y="1600" />
              <mxPoint x="1105" y="1600" />
            </Array>
          </mxGeometry>
        </mxCell>
        <mxCell id="QpX_nXxIr_vmFLKxzl1e-207" style="edgeStyle=orthogonalEdgeStyle;rounded=0;orthogonalLoop=1;jettySize=auto;html=1;exitX=0.5;exitY=1;exitDx=0;exitDy=0;entryX=0.5;entryY=0;entryDx=0;entryDy=0;" edge="1" source="QpX_nXxIr_vmFLKxzl1e-208" target="QpX_nXxIr_vmFLKxzl1e-212" parent="WIyWlLk6GJQsqaUBKTNV-1">
          <mxGeometry relative="1" as="geometry">
            <Array as="points">
              <mxPoint x="1105" y="1810" />
              <mxPoint x="1230" y="1810" />
              <mxPoint x="1230" y="1230" />
              <mxPoint x="1400" y="1230" />
            </Array>
          </mxGeometry>
        </mxCell>
        <mxCell id="QpX_nXxIr_vmFLKxzl1e-208" value="거래년도 소유권 변동 있음 / 도로명 /&amp;nbsp;&amp;nbsp;(용도지역 상업만) / 연면적 비슷 데이터 1개" style="rhombus;whiteSpace=wrap;html=1;" vertex="1" parent="WIyWlLk6GJQsqaUBKTNV-1">
          <mxGeometry x="1000" y="1710" width="220" height="80" as="geometry" />
        </mxCell>
        <mxCell id="QpX_nXxIr_vmFLKxzl1e-209" style="edgeStyle=orthogonalEdgeStyle;rounded=0;orthogonalLoop=1;jettySize=auto;html=1;exitX=0.5;exitY=1;exitDx=0;exitDy=0;entryX=0.5;entryY=0;entryDx=0;entryDy=0;" edge="1" source="QpX_nXxIr_vmFLKxzl1e-210" target="QpX_nXxIr_vmFLKxzl1e-208" parent="WIyWlLk6GJQsqaUBKTNV-1">
          <mxGeometry relative="1" as="geometry" />
        </mxCell>
        <mxCell id="QpX_nXxIr_vmFLKxzl1e-210" value="가져온 데이터 row 별 순회&lt;div&gt;&lt;br&gt;&lt;/div&gt;" style="rounded=1;whiteSpace=wrap;html=1;" vertex="1" parent="WIyWlLk6GJQsqaUBKTNV-1">
          <mxGeometry x="1020" y="1620" width="170" height="60" as="geometry" />
        </mxCell>
        <mxCell id="QpX_nXxIr_vmFLKxzl1e-211" style="edgeStyle=orthogonalEdgeStyle;rounded=0;orthogonalLoop=1;jettySize=auto;html=1;exitX=0.5;exitY=1;exitDx=0;exitDy=0;entryX=0.5;entryY=0;entryDx=0;entryDy=0;" edge="1" source="QpX_nXxIr_vmFLKxzl1e-212" target="QpX_nXxIr_vmFLKxzl1e-215" parent="WIyWlLk6GJQsqaUBKTNV-1">
          <mxGeometry relative="1" as="geometry" />
        </mxCell>
        <mxCell id="QpX_nXxIr_vmFLKxzl1e-212" value="전년도 소유권 변동 있음 / 도로명 / (용도지역 상업만) / 연면적 비슷 데이터 1개" style="rhombus;whiteSpace=wrap;html=1;" vertex="1" parent="WIyWlLk6GJQsqaUBKTNV-1">
          <mxGeometry x="1270" y="1250" width="260" height="80" as="geometry" />
        </mxCell>
        <mxCell id="QpX_nXxIr_vmFLKxzl1e-213" style="edgeStyle=orthogonalEdgeStyle;rounded=0;orthogonalLoop=1;jettySize=auto;html=1;exitX=0.5;exitY=1;exitDx=0;exitDy=0;entryX=0.5;entryY=0;entryDx=0;entryDy=0;" edge="1" source="QpX_nXxIr_vmFLKxzl1e-215" target="QpX_nXxIr_vmFLKxzl1e-218" parent="WIyWlLk6GJQsqaUBKTNV-1">
          <mxGeometry relative="1" as="geometry" />
        </mxCell>
        <mxCell id="QpX_nXxIr_vmFLKxzl1e-214" style="edgeStyle=orthogonalEdgeStyle;rounded=0;orthogonalLoop=1;jettySize=auto;html=1;exitX=0;exitY=0.5;exitDx=0;exitDy=0;entryX=0.5;entryY=0;entryDx=0;entryDy=0;" edge="1" source="QpX_nXxIr_vmFLKxzl1e-215" target="QpX_nXxIr_vmFLKxzl1e-210" parent="WIyWlLk6GJQsqaUBKTNV-1">
          <mxGeometry relative="1" as="geometry">
            <Array as="points">
              <mxPoint x="1240" y="1410" />
              <mxPoint x="1240" y="1830" />
              <mxPoint x="980" y="1830" />
              <mxPoint x="980" y="1620" />
            </Array>
          </mxGeometry>
        </mxCell>
        <mxCell id="QpX_nXxIr_vmFLKxzl1e-215" value="차년도 소유권 변동 있음 / 도로명 /&amp;nbsp;&amp;nbsp;(용도지역 상업만) / 연면적 비슷 데이터 1개" style="rhombus;whiteSpace=wrap;html=1;" vertex="1" parent="WIyWlLk6GJQsqaUBKTNV-1">
          <mxGeometry x="1270" y="1360" width="260" height="100" as="geometry" />
        </mxCell>
        <mxCell id="QpX_nXxIr_vmFLKxzl1e-216" style="edgeStyle=orthogonalEdgeStyle;rounded=0;orthogonalLoop=1;jettySize=auto;html=1;exitX=0;exitY=0.5;exitDx=0;exitDy=0;entryX=0.5;entryY=0;entryDx=0;entryDy=0;" edge="1" source="QpX_nXxIr_vmFLKxzl1e-218" target="QpX_nXxIr_vmFLKxzl1e-210" parent="WIyWlLk6GJQsqaUBKTNV-1">
          <mxGeometry relative="1" as="geometry">
            <Array as="points">
              <mxPoint x="1260" y="1540" />
              <mxPoint x="1260" y="1840" />
              <mxPoint x="980" y="1840" />
              <mxPoint x="980" y="1620" />
            </Array>
          </mxGeometry>
        </mxCell>
        <mxCell id="QpX_nXxIr_vmFLKxzl1e-241" style="edgeStyle=orthogonalEdgeStyle;rounded=0;orthogonalLoop=1;jettySize=auto;html=1;exitX=0.5;exitY=1;exitDx=0;exitDy=0;entryX=0.5;entryY=0;entryDx=0;entryDy=0;" edge="1" parent="WIyWlLk6GJQsqaUBKTNV-1" source="QpX_nXxIr_vmFLKxzl1e-218" target="QpX_nXxIr_vmFLKxzl1e-239">
          <mxGeometry relative="1" as="geometry" />
        </mxCell>
        <mxCell id="QpX_nXxIr_vmFLKxzl1e-218" value="거래년도 소유권 변동 있음 / 도로명 /&amp;nbsp;(용도지역 상업만) / 대지면적 비슷 데이터 1개" style="rhombus;whiteSpace=wrap;html=1;" vertex="1" parent="WIyWlLk6GJQsqaUBKTNV-1">
          <mxGeometry x="1270" y="1490" width="260" height="100" as="geometry" />
        </mxCell>
        <mxCell id="QpX_nXxIr_vmFLKxzl1e-219" style="edgeStyle=orthogonalEdgeStyle;rounded=0;orthogonalLoop=1;jettySize=auto;html=1;exitX=0.5;exitY=1;exitDx=0;exitDy=0;entryX=0.5;entryY=0;entryDx=0;entryDy=0;" edge="1" source="QpX_nXxIr_vmFLKxzl1e-220" target="QpX_nXxIr_vmFLKxzl1e-223" parent="WIyWlLk6GJQsqaUBKTNV-1">
          <mxGeometry relative="1" as="geometry" />
        </mxCell>
        <mxCell id="QpX_nXxIr_vmFLKxzl1e-220" value="&lt;div&gt;매칭0 데이터 순회 종료시 db insert&amp;nbsp;&lt;br&gt;&lt;/div&gt;" style="rounded=1;whiteSpace=wrap;html=1;" vertex="1" parent="WIyWlLk6GJQsqaUBKTNV-1">
          <mxGeometry x="1620" y="1248" width="170" height="60" as="geometry" />
        </mxCell>
        <mxCell id="QpX_nXxIr_vmFLKxzl1e-221" value="매칭0" style="text;html=1;align=center;verticalAlign=middle;resizable=0;points=[];autosize=1;strokeColor=none;fillColor=none;" vertex="1" parent="WIyWlLk6GJQsqaUBKTNV-1">
          <mxGeometry x="970" y="1260" width="50" height="30" as="geometry" />
        </mxCell>
        <mxCell id="QpX_nXxIr_vmFLKxzl1e-222" style="edgeStyle=orthogonalEdgeStyle;rounded=0;orthogonalLoop=1;jettySize=auto;html=1;exitX=0.5;exitY=1;exitDx=0;exitDy=0;entryX=0.5;entryY=0;entryDx=0;entryDy=0;" edge="1" target="QpX_nXxIr_vmFLKxzl1e-226" parent="WIyWlLk6GJQsqaUBKTNV-1">
          <mxGeometry relative="1" as="geometry">
            <mxPoint x="1705" y="1413" as="sourcePoint" />
          </mxGeometry>
        </mxCell>
        <mxCell id="QpX_nXxIr_vmFLKxzl1e-223" value="다중 매칭 데이터 가져오기" style="rounded=1;whiteSpace=wrap;html=1;" vertex="1" parent="WIyWlLk6GJQsqaUBKTNV-1">
          <mxGeometry x="1620" y="1343" width="170" height="60" as="geometry" />
        </mxCell>
        <mxCell id="QpX_nXxIr_vmFLKxzl1e-224" value="다중매칭" style="text;html=1;align=center;verticalAlign=middle;resizable=0;points=[];autosize=1;strokeColor=none;fillColor=none;" vertex="1" parent="WIyWlLk6GJQsqaUBKTNV-1">
          <mxGeometry x="1250" y="1710" width="70" height="30" as="geometry" />
        </mxCell>
        <mxCell id="QpX_nXxIr_vmFLKxzl1e-225" style="edgeStyle=orthogonalEdgeStyle;rounded=0;orthogonalLoop=1;jettySize=auto;html=1;exitX=0.5;exitY=1;exitDx=0;exitDy=0;entryX=0.5;entryY=0;entryDx=0;entryDy=0;" edge="1" source="QpX_nXxIr_vmFLKxzl1e-226" target="QpX_nXxIr_vmFLKxzl1e-228" parent="WIyWlLk6GJQsqaUBKTNV-1">
          <mxGeometry relative="1" as="geometry">
            <mxPoint x="1775.06" y="1248" as="targetPoint" />
          </mxGeometry>
        </mxCell>
        <mxCell id="QpX_nXxIr_vmFLKxzl1e-226" value="시도 별 반복" style="rounded=1;whiteSpace=wrap;html=1;" vertex="1" parent="WIyWlLk6GJQsqaUBKTNV-1">
          <mxGeometry x="1620" y="1433" width="170" height="60" as="geometry" />
        </mxCell>
        <mxCell id="QpX_nXxIr_vmFLKxzl1e-227" style="edgeStyle=orthogonalEdgeStyle;rounded=0;orthogonalLoop=1;jettySize=auto;html=1;" edge="1" source="QpX_nXxIr_vmFLKxzl1e-228" target="QpX_nXxIr_vmFLKxzl1e-233" parent="WIyWlLk6GJQsqaUBKTNV-1">
          <mxGeometry relative="1" as="geometry" />
        </mxCell>
        <mxCell id="QpX_nXxIr_vmFLKxzl1e-228" value="표제부, 기본, 토지임야, 토지소유공간 join&amp;nbsp; 소유권 변동 소유권 변동일 연도 비교 select" style="rounded=1;whiteSpace=wrap;html=1;" vertex="1" parent="WIyWlLk6GJQsqaUBKTNV-1">
          <mxGeometry x="1620" y="1523" width="170" height="60" as="geometry" />
        </mxCell>
        <mxCell id="QpX_nXxIr_vmFLKxzl1e-251" style="edgeStyle=orthogonalEdgeStyle;rounded=0;orthogonalLoop=1;jettySize=auto;html=1;exitX=0;exitY=0.5;exitDx=0;exitDy=0;entryX=0.5;entryY=0;entryDx=0;entryDy=0;" edge="1" parent="WIyWlLk6GJQsqaUBKTNV-1" source="QpX_nXxIr_vmFLKxzl1e-231" target="QpX_nXxIr_vmFLKxzl1e-233">
          <mxGeometry relative="1" as="geometry">
            <Array as="points">
              <mxPoint x="1555" y="1760" />
              <mxPoint x="1555" y="1593" />
              <mxPoint x="1705" y="1593" />
            </Array>
          </mxGeometry>
        </mxCell>
        <mxCell id="QpX_nXxIr_vmFLKxzl1e-253" style="edgeStyle=orthogonalEdgeStyle;rounded=0;orthogonalLoop=1;jettySize=auto;html=1;exitX=0.5;exitY=1;exitDx=0;exitDy=0;entryX=0.5;entryY=0;entryDx=0;entryDy=0;" edge="1" parent="WIyWlLk6GJQsqaUBKTNV-1" source="QpX_nXxIr_vmFLKxzl1e-231" target="QpX_nXxIr_vmFLKxzl1e-234">
          <mxGeometry relative="1" as="geometry" />
        </mxCell>
        <mxCell id="QpX_nXxIr_vmFLKxzl1e-231" value="다중 매칭 주소별 / 다중매칭 depth 별 순회&lt;br&gt;소유권 변동일 비교 후 매칭 데이터 1개" style="rhombus;whiteSpace=wrap;html=1;" vertex="1" parent="WIyWlLk6GJQsqaUBKTNV-1">
          <mxGeometry x="1575" y="1710" width="260" height="100" as="geometry" />
        </mxCell>
        <mxCell id="QpX_nXxIr_vmFLKxzl1e-250" style="edgeStyle=orthogonalEdgeStyle;rounded=0;orthogonalLoop=1;jettySize=auto;html=1;exitX=0.5;exitY=1;exitDx=0;exitDy=0;entryX=0.5;entryY=0;entryDx=0;entryDy=0;" edge="1" parent="WIyWlLk6GJQsqaUBKTNV-1" source="QpX_nXxIr_vmFLKxzl1e-233" target="QpX_nXxIr_vmFLKxzl1e-231">
          <mxGeometry relative="1" as="geometry" />
        </mxCell>
        <mxCell id="QpX_nXxIr_vmFLKxzl1e-233" value="Select data row 별" style="rounded=1;whiteSpace=wrap;html=1;" vertex="1" parent="WIyWlLk6GJQsqaUBKTNV-1">
          <mxGeometry x="1620" y="1613" width="170" height="60" as="geometry" />
        </mxCell>
        <mxCell id="QpX_nXxIr_vmFLKxzl1e-234" value="&lt;div&gt;다중매칭 데이터 순회 종료시 db insert&amp;nbsp;&lt;br&gt;&lt;/div&gt;" style="rounded=1;whiteSpace=wrap;html=1;" vertex="1" parent="WIyWlLk6GJQsqaUBKTNV-1">
          <mxGeometry x="1620" y="1840" width="170" height="60" as="geometry" />
        </mxCell>
        <mxCell id="QpX_nXxIr_vmFLKxzl1e-235" value="Depth15" style="text;html=1;align=center;verticalAlign=middle;resizable=0;points=[];autosize=1;strokeColor=none;fillColor=none;" vertex="1" parent="WIyWlLk6GJQsqaUBKTNV-1">
          <mxGeometry x="1255" y="1248" width="70" height="30" as="geometry" />
        </mxCell>
        <mxCell id="QpX_nXxIr_vmFLKxzl1e-236" value="Depth14" style="text;html=1;align=center;verticalAlign=middle;resizable=0;points=[];autosize=1;strokeColor=none;fillColor=none;" vertex="1" parent="WIyWlLk6GJQsqaUBKTNV-1">
          <mxGeometry x="980" y="1710" width="70" height="30" as="geometry" />
        </mxCell>
        <mxCell id="QpX_nXxIr_vmFLKxzl1e-237" value="Depth16" style="text;html=1;align=center;verticalAlign=middle;resizable=0;points=[];autosize=1;strokeColor=none;fillColor=none;" vertex="1" parent="WIyWlLk6GJQsqaUBKTNV-1">
          <mxGeometry x="1255" y="1360" width="70" height="30" as="geometry" />
        </mxCell>
        <mxCell id="QpX_nXxIr_vmFLKxzl1e-238" value="Depth17" style="text;html=1;align=center;verticalAlign=middle;resizable=0;points=[];autosize=1;strokeColor=none;fillColor=none;" vertex="1" parent="WIyWlLk6GJQsqaUBKTNV-1">
          <mxGeometry x="1265" y="1498" width="70" height="30" as="geometry" />
        </mxCell>
        <mxCell id="QpX_nXxIr_vmFLKxzl1e-242" style="edgeStyle=orthogonalEdgeStyle;rounded=0;orthogonalLoop=1;jettySize=auto;html=1;exitX=0.5;exitY=1;exitDx=0;exitDy=0;" edge="1" parent="WIyWlLk6GJQsqaUBKTNV-1" source="QpX_nXxIr_vmFLKxzl1e-239" target="QpX_nXxIr_vmFLKxzl1e-240">
          <mxGeometry relative="1" as="geometry" />
        </mxCell>
        <mxCell id="QpX_nXxIr_vmFLKxzl1e-246" style="edgeStyle=orthogonalEdgeStyle;rounded=0;orthogonalLoop=1;jettySize=auto;html=1;exitX=0;exitY=0.5;exitDx=0;exitDy=0;entryX=0.5;entryY=0;entryDx=0;entryDy=0;" edge="1" parent="WIyWlLk6GJQsqaUBKTNV-1" source="QpX_nXxIr_vmFLKxzl1e-239" target="QpX_nXxIr_vmFLKxzl1e-210">
          <mxGeometry relative="1" as="geometry">
            <Array as="points">
              <mxPoint x="1270" y="1840" />
              <mxPoint x="980" y="1840" />
              <mxPoint x="980" y="1620" />
            </Array>
          </mxGeometry>
        </mxCell>
        <mxCell id="QpX_nXxIr_vmFLKxzl1e-239" value="전년도 소유권 변동 있음 / 도로명 /&amp;nbsp;(용도지역 상업만) / 대지면적 비슷 데이터 1개" style="rhombus;whiteSpace=wrap;html=1;" vertex="1" parent="WIyWlLk6GJQsqaUBKTNV-1">
          <mxGeometry x="1270" y="1620" width="260" height="100" as="geometry" />
        </mxCell>
        <mxCell id="QpX_nXxIr_vmFLKxzl1e-245" style="edgeStyle=orthogonalEdgeStyle;rounded=0;orthogonalLoop=1;jettySize=auto;html=1;exitX=0.5;exitY=1;exitDx=0;exitDy=0;entryX=0.5;entryY=0;entryDx=0;entryDy=0;" edge="1" parent="WIyWlLk6GJQsqaUBKTNV-1" source="QpX_nXxIr_vmFLKxzl1e-240" target="QpX_nXxIr_vmFLKxzl1e-220">
          <mxGeometry relative="1" as="geometry">
            <Array as="points">
              <mxPoint x="1400" y="1870" />
              <mxPoint x="1540" y="1870" />
              <mxPoint x="1540" y="1228" />
              <mxPoint x="1705" y="1228" />
            </Array>
          </mxGeometry>
        </mxCell>
        <mxCell id="QpX_nXxIr_vmFLKxzl1e-240" value="차년도 소유권 변동 있음 / 도로명 /&amp;nbsp;(용도지역 상업만) / 대지면적 비슷 데이터 1개" style="rhombus;whiteSpace=wrap;html=1;" vertex="1" parent="WIyWlLk6GJQsqaUBKTNV-1">
          <mxGeometry x="1270" y="1750" width="260" height="100" as="geometry" />
        </mxCell>
        <mxCell id="QpX_nXxIr_vmFLKxzl1e-243" value="Depth18" style="text;html=1;align=center;verticalAlign=middle;resizable=0;points=[];autosize=1;strokeColor=none;fillColor=none;" vertex="1" parent="WIyWlLk6GJQsqaUBKTNV-1">
          <mxGeometry x="1270" y="1615" width="70" height="30" as="geometry" />
        </mxCell>
        <mxCell id="QpX_nXxIr_vmFLKxzl1e-244" value="Depth19" style="text;html=1;align=center;verticalAlign=middle;resizable=0;points=[];autosize=1;strokeColor=none;fillColor=none;" vertex="1" parent="WIyWlLk6GJQsqaUBKTNV-1">
          <mxGeometry x="1270" y="1750" width="70" height="30" as="geometry" />
        </mxCell>
        <mxCell id="QpX_nXxIr_vmFLKxzl1e-254" value="상업 업무/단독 다가구 지번 매칭 step3" style="text;html=1;align=center;verticalAlign=middle;resizable=0;points=[];autosize=1;strokeColor=none;fillColor=none;" vertex="1" parent="WIyWlLk6GJQsqaUBKTNV-1">
          <mxGeometry x="950" y="1972" width="230" height="30" as="geometry" />
        </mxCell>
        <mxCell id="QpX_nXxIr_vmFLKxzl1e-255" style="edgeStyle=orthogonalEdgeStyle;rounded=0;orthogonalLoop=1;jettySize=auto;html=1;exitX=0.5;exitY=1;exitDx=0;exitDy=0;entryX=0.5;entryY=0;entryDx=0;entryDy=0;" edge="1" parent="WIyWlLk6GJQsqaUBKTNV-1" source="QpX_nXxIr_vmFLKxzl1e-256" target="QpX_nXxIr_vmFLKxzl1e-258">
          <mxGeometry relative="1" as="geometry" />
        </mxCell>
        <mxCell id="QpX_nXxIr_vmFLKxzl1e-256" value="step2 못찾은 지번 가져오기" style="rounded=1;whiteSpace=wrap;html=1;" vertex="1" parent="WIyWlLk6GJQsqaUBKTNV-1">
          <mxGeometry x="1000" y="2002" width="170" height="60" as="geometry" />
        </mxCell>
        <mxCell id="QpX_nXxIr_vmFLKxzl1e-257" style="edgeStyle=orthogonalEdgeStyle;rounded=0;orthogonalLoop=1;jettySize=auto;html=1;exitX=0.5;exitY=1;exitDx=0;exitDy=0;" edge="1" parent="WIyWlLk6GJQsqaUBKTNV-1" source="QpX_nXxIr_vmFLKxzl1e-258" target="QpX_nXxIr_vmFLKxzl1e-260">
          <mxGeometry relative="1" as="geometry" />
        </mxCell>
        <mxCell id="QpX_nXxIr_vmFLKxzl1e-258" value="시도별 반복" style="rounded=1;whiteSpace=wrap;html=1;" vertex="1" parent="WIyWlLk6GJQsqaUBKTNV-1">
          <mxGeometry x="1000" y="2092" width="170" height="60" as="geometry" />
        </mxCell>
        <mxCell id="QpX_nXxIr_vmFLKxzl1e-259" style="edgeStyle=orthogonalEdgeStyle;rounded=0;orthogonalLoop=1;jettySize=auto;html=1;exitX=0.5;exitY=1;exitDx=0;exitDy=0;" edge="1" parent="WIyWlLk6GJQsqaUBKTNV-1" source="QpX_nXxIr_vmFLKxzl1e-260">
          <mxGeometry relative="1" as="geometry">
            <mxPoint x="1085" y="2272" as="targetPoint" />
          </mxGeometry>
        </mxCell>
        <mxCell id="QpX_nXxIr_vmFLKxzl1e-260" value="건축물대장 기본, 건축물대장 표제부, 토지임야, 토지특성 가져오기 select&amp;nbsp;" style="rounded=1;whiteSpace=wrap;html=1;" vertex="1" parent="WIyWlLk6GJQsqaUBKTNV-1">
          <mxGeometry x="1000" y="2182" width="170" height="60" as="geometry" />
        </mxCell>
        <mxCell id="QpX_nXxIr_vmFLKxzl1e-261" style="edgeStyle=orthogonalEdgeStyle;rounded=0;orthogonalLoop=1;jettySize=auto;html=1;exitX=0.5;exitY=1;exitDx=0;exitDy=0;entryX=0.5;entryY=0;entryDx=0;entryDy=0;" edge="1" parent="WIyWlLk6GJQsqaUBKTNV-1" source="QpX_nXxIr_vmFLKxzl1e-262" target="QpX_nXxIr_vmFLKxzl1e-267">
          <mxGeometry relative="1" as="geometry" />
        </mxCell>
        <mxCell id="QpX_nXxIr_vmFLKxzl1e-262" value="연도별 순회&amp;nbsp; 기준년도 기준년도 +- 1 데이터프레임 각각 생성" style="rounded=1;whiteSpace=wrap;html=1;" vertex="1" parent="WIyWlLk6GJQsqaUBKTNV-1">
          <mxGeometry x="1000" y="2272" width="170" height="60" as="geometry" />
        </mxCell>
        <mxCell id="QpX_nXxIr_vmFLKxzl1e-263" style="edgeStyle=orthogonalEdgeStyle;rounded=0;orthogonalLoop=1;jettySize=auto;html=1;exitX=0;exitY=0.5;exitDx=0;exitDy=0;entryX=0.5;entryY=0;entryDx=0;entryDy=0;" edge="1" parent="WIyWlLk6GJQsqaUBKTNV-1" source="QpX_nXxIr_vmFLKxzl1e-265" target="QpX_nXxIr_vmFLKxzl1e-267">
          <mxGeometry relative="1" as="geometry">
            <mxPoint x="910" y="2342" as="targetPoint" />
            <Array as="points">
              <mxPoint x="960" y="2492" />
              <mxPoint x="960" y="2342" />
              <mxPoint x="1085" y="2342" />
            </Array>
          </mxGeometry>
        </mxCell>
        <mxCell id="QpX_nXxIr_vmFLKxzl1e-264" style="edgeStyle=orthogonalEdgeStyle;rounded=0;orthogonalLoop=1;jettySize=auto;html=1;exitX=0.5;exitY=1;exitDx=0;exitDy=0;entryX=0.5;entryY=0;entryDx=0;entryDy=0;" edge="1" parent="WIyWlLk6GJQsqaUBKTNV-1" source="QpX_nXxIr_vmFLKxzl1e-265" target="QpX_nXxIr_vmFLKxzl1e-269">
          <mxGeometry relative="1" as="geometry">
            <Array as="points">
              <mxPoint x="1085" y="2552" />
              <mxPoint x="1210" y="2552" />
              <mxPoint x="1210" y="1972" />
              <mxPoint x="1380" y="1972" />
            </Array>
          </mxGeometry>
        </mxCell>
        <mxCell id="QpX_nXxIr_vmFLKxzl1e-265" value="거래년도 소유권 변동 있음 / 도로명 / 도로조건 / (용도지역 상업만) / 대지면적 비슷 데이터 1개" style="rhombus;whiteSpace=wrap;html=1;" vertex="1" parent="WIyWlLk6GJQsqaUBKTNV-1">
          <mxGeometry x="980" y="2452" width="220" height="80" as="geometry" />
        </mxCell>
        <mxCell id="QpX_nXxIr_vmFLKxzl1e-266" style="edgeStyle=orthogonalEdgeStyle;rounded=0;orthogonalLoop=1;jettySize=auto;html=1;exitX=0.5;exitY=1;exitDx=0;exitDy=0;entryX=0.5;entryY=0;entryDx=0;entryDy=0;" edge="1" parent="WIyWlLk6GJQsqaUBKTNV-1" source="QpX_nXxIr_vmFLKxzl1e-267" target="QpX_nXxIr_vmFLKxzl1e-265">
          <mxGeometry relative="1" as="geometry" />
        </mxCell>
        <mxCell id="QpX_nXxIr_vmFLKxzl1e-267" value="가져온 데이터 row 별 순회&lt;div&gt;&lt;br&gt;&lt;/div&gt;" style="rounded=1;whiteSpace=wrap;html=1;" vertex="1" parent="WIyWlLk6GJQsqaUBKTNV-1">
          <mxGeometry x="1000" y="2362" width="170" height="60" as="geometry" />
        </mxCell>
        <mxCell id="QpX_nXxIr_vmFLKxzl1e-268" style="edgeStyle=orthogonalEdgeStyle;rounded=0;orthogonalLoop=1;jettySize=auto;html=1;exitX=0.5;exitY=1;exitDx=0;exitDy=0;entryX=0.5;entryY=0;entryDx=0;entryDy=0;" edge="1" parent="WIyWlLk6GJQsqaUBKTNV-1" source="QpX_nXxIr_vmFLKxzl1e-269" target="QpX_nXxIr_vmFLKxzl1e-272">
          <mxGeometry relative="1" as="geometry" />
        </mxCell>
        <mxCell id="QpX_nXxIr_vmFLKxzl1e-269" value="거래년도 -1 / 소유권 변동 있음 / 도로명 / 도로조건 / (용도지역 상업만) / 대지면적 비슷 데이터 1개" style="rhombus;whiteSpace=wrap;html=1;" vertex="1" parent="WIyWlLk6GJQsqaUBKTNV-1">
          <mxGeometry x="1250" y="1992" width="260" height="80" as="geometry" />
        </mxCell>
        <mxCell id="QpX_nXxIr_vmFLKxzl1e-271" style="edgeStyle=orthogonalEdgeStyle;rounded=0;orthogonalLoop=1;jettySize=auto;html=1;exitX=0;exitY=0.5;exitDx=0;exitDy=0;entryX=0.5;entryY=0;entryDx=0;entryDy=0;" edge="1" parent="WIyWlLk6GJQsqaUBKTNV-1" source="QpX_nXxIr_vmFLKxzl1e-272" target="QpX_nXxIr_vmFLKxzl1e-267">
          <mxGeometry relative="1" as="geometry">
            <Array as="points">
              <mxPoint x="1220" y="2152" />
              <mxPoint x="1220" y="2572" />
              <mxPoint x="960" y="2572" />
              <mxPoint x="960" y="2362" />
            </Array>
          </mxGeometry>
        </mxCell>
        <mxCell id="QpX_nXxIr_vmFLKxzl1e-303" style="edgeStyle=orthogonalEdgeStyle;rounded=0;orthogonalLoop=1;jettySize=auto;html=1;exitX=0.5;exitY=1;exitDx=0;exitDy=0;entryX=0.5;entryY=0;entryDx=0;entryDy=0;" edge="1" parent="WIyWlLk6GJQsqaUBKTNV-1" source="QpX_nXxIr_vmFLKxzl1e-272" target="QpX_nXxIr_vmFLKxzl1e-277">
          <mxGeometry relative="1" as="geometry" />
        </mxCell>
        <mxCell id="QpX_nXxIr_vmFLKxzl1e-272" value="거래년도 +1 / 소유권 변동 있음 / 도로명 / 도로조건 / (용도지역 상업만) / 대지면적 비슷 데이터 1개" style="rhombus;whiteSpace=wrap;html=1;" vertex="1" parent="WIyWlLk6GJQsqaUBKTNV-1">
          <mxGeometry x="1250" y="2102" width="260" height="100" as="geometry" />
        </mxCell>
        <mxCell id="QpX_nXxIr_vmFLKxzl1e-277" value="&lt;div&gt;매칭0 데이터 순회 종료시 db insert&amp;nbsp;&lt;br&gt;&lt;/div&gt;" style="rounded=1;whiteSpace=wrap;html=1;" vertex="1" parent="WIyWlLk6GJQsqaUBKTNV-1">
          <mxGeometry x="1295" y="2230" width="170" height="60" as="geometry" />
        </mxCell>
        <mxCell id="QpX_nXxIr_vmFLKxzl1e-278" value="매칭0" style="text;html=1;align=center;verticalAlign=middle;resizable=0;points=[];autosize=1;strokeColor=none;fillColor=none;" vertex="1" parent="WIyWlLk6GJQsqaUBKTNV-1">
          <mxGeometry x="950" y="2002" width="50" height="30" as="geometry" />
        </mxCell>
        <mxCell id="QpX_nXxIr_vmFLKxzl1e-286" style="edgeStyle=orthogonalEdgeStyle;rounded=0;orthogonalLoop=1;jettySize=auto;html=1;exitX=0;exitY=0.5;exitDx=0;exitDy=0;entryX=0.5;entryY=0;entryDx=0;entryDy=0;" edge="1" parent="WIyWlLk6GJQsqaUBKTNV-1" target="QpX_nXxIr_vmFLKxzl1e-290">
          <mxGeometry relative="1" as="geometry">
            <Array as="points">
              <mxPoint x="1535" y="2502" />
              <mxPoint x="1535" y="2335" />
              <mxPoint x="1685" y="2335" />
            </Array>
            <mxPoint x="1555" y="2502" as="sourcePoint" />
          </mxGeometry>
        </mxCell>
        <mxCell id="QpX_nXxIr_vmFLKxzl1e-292" value="Depth32" style="text;html=1;align=center;verticalAlign=middle;resizable=0;points=[];autosize=1;strokeColor=none;fillColor=none;" vertex="1" parent="WIyWlLk6GJQsqaUBKTNV-1">
          <mxGeometry x="1235" y="1990" width="70" height="30" as="geometry" />
        </mxCell>
        <mxCell id="QpX_nXxIr_vmFLKxzl1e-293" value="Depth31" style="text;html=1;align=center;verticalAlign=middle;resizable=0;points=[];autosize=1;strokeColor=none;fillColor=none;" vertex="1" parent="WIyWlLk6GJQsqaUBKTNV-1">
          <mxGeometry x="960" y="2452" width="70" height="30" as="geometry" />
        </mxCell>
        <mxCell id="QpX_nXxIr_vmFLKxzl1e-294" value="Depth33" style="text;html=1;align=center;verticalAlign=middle;resizable=0;points=[];autosize=1;strokeColor=none;fillColor=none;" vertex="1" parent="WIyWlLk6GJQsqaUBKTNV-1">
          <mxGeometry x="1235" y="2102" width="70" height="30" as="geometry" />
        </mxCell>
      </root>
    </mxGraphModel>
  </diagram>
</mxfile>
